<svg width="311" height="341" viewBox="0 0 311 341" fill="none" xmlns="http://www.w3.org/2000/svg">
<g clip-path="url(#clip0_6_1396)">
<path opacity="0.1" d="M155.5 341C241.381 341 311 271.42 311 185.588C311 99.7562 241.381 30.1759 155.5 30.1759C69.6198 30.1759 0 99.7562 0 185.588C0 271.42 69.6198 341 155.5 341Z" fill="#FFCF00"/>
<path d="M104.138 87.9662C104.051 87.9661 103.966 87.9421 103.892 87.8969C103.818 87.8516 103.757 87.787 103.718 87.7099C103.678 87.6328 103.66 87.5463 103.666 87.4597C103.672 87.3732 103.702 87.29 103.752 87.2192C103.839 87.0952 112.4 74.7268 102.844 63.4515C101.152 61.445 99.0418 59.8325 96.6608 58.7272C94.2799 57.6218 91.6858 57.0504 89.0605 57.0528H88.9345C89.842 60.2036 89.68 63.0051 88.395 65.1542C87.8474 66.1254 87.0394 66.9244 86.0619 67.4614C85.0844 67.9983 83.9763 68.2518 82.8624 68.1933C81.9405 68.1178 81.0605 67.7753 80.3305 67.2076C79.6004 66.6399 79.0519 65.8716 78.7521 64.997C77.7011 62.2571 78.7995 59.6005 81.6939 57.8883C83.5278 56.8776 85.5656 56.2919 87.6566 56.1747C86.9766 54.3721 86.0922 52.6533 85.0208 51.0518C81.5703 45.785 75.2812 42.1396 67.7664 41.0494C61.3982 40.1253 55.2948 41.2132 52.2156 43.8196C52.1198 43.9007 51.9956 43.9405 51.8704 43.9302C51.7452 43.9198 51.6292 43.8602 51.548 43.7644C51.4668 43.6686 51.427 43.5445 51.4373 43.4194C51.4477 43.2943 51.5073 43.1784 51.6032 43.0972C54.8804 40.3232 61.2779 39.1506 67.9023 40.1126C75.6862 41.2416 82.214 45.0399 85.8137 50.5335C86.9808 52.2755 87.9301 54.1538 88.6404 56.1264C91.4719 56.0585 94.2825 56.6262 96.8653 57.7879C99.4481 58.9497 101.737 60.6757 103.564 62.8389C113.602 74.6823 104.615 87.6372 104.523 87.7665C104.479 87.828 104.421 87.8783 104.354 87.913C104.287 87.9478 104.213 87.966 104.138 87.9662ZM87.964 57.0893C85.9366 57.1751 83.9563 57.7275 82.1775 58.7035C79.6785 60.1818 78.753 62.3523 79.6373 64.6586C79.8768 65.3653 80.3173 65.9869 80.9048 66.4473C81.4923 66.9077 82.2014 67.1869 82.9453 67.2508C83.8818 67.2927 84.8115 67.0734 85.6305 66.6174C86.4495 66.1615 87.1254 65.4869 87.5827 64.669C88.764 62.695 88.8725 60.0715 87.964 57.0893Z" fill="#292A2E"/>
<path d="M44.042 51.4561C43.2379 51.6968 42.3716 51.6143 41.6276 51.2262C40.8835 50.8381 40.3204 50.175 40.0582 49.3781C39.796 48.5812 39.8554 47.7136 40.2237 46.9598C40.5921 46.2061 41.2402 45.6258 42.0303 45.3426C42.8203 45.0593 43.6898 45.0955 44.4535 45.4434C45.2172 45.7913 45.8149 46.4234 46.1193 47.2051C46.4237 47.9869 46.4107 48.8565 46.0831 49.6288C45.7555 50.4011 45.1392 51.0152 44.3655 51.3401C44.2597 51.3844 44.1518 51.4231 44.042 51.4561ZM42.4671 46.1936C42.3903 46.2169 42.3147 46.2441 42.2407 46.275C41.6951 46.5045 41.2608 46.9378 41.0301 47.4826C40.7995 48.0274 40.7908 48.6407 41.0059 49.1919C41.221 49.743 41.6429 50.1885 42.1817 50.4333C42.7206 50.6782 43.3338 50.7031 43.8907 50.5028C44.4477 50.3025 44.9044 49.8928 45.1636 49.361C45.4228 48.8291 45.464 48.2171 45.2784 47.6554C45.0928 47.0936 44.6951 46.6265 44.17 46.3534C43.6449 46.0804 43.0339 46.023 42.4671 46.1936Z" fill="#292A2E"/>
<path d="M44.0358 44.0345C43.2744 44.2615 42.4559 44.1993 41.7377 43.8597C41.0194 43.5202 40.4521 42.9272 40.1448 42.1949C39.8983 41.6078 39.8316 40.9609 39.953 40.3359C40.0744 39.7109 40.3786 39.1359 40.827 38.6837C41.2754 38.2314 41.848 37.9222 42.4722 37.7952C43.0964 37.6682 43.7443 37.7291 44.334 37.9701C44.9236 38.2111 45.4285 38.6215 45.7848 39.1493C46.141 39.6771 46.3327 40.2986 46.3355 40.9353C46.3383 41.572 46.1521 42.1952 45.8006 42.7261C45.449 43.257 44.9477 43.6718 44.3602 43.918C44.2541 43.9623 44.1459 44.0012 44.0358 44.0345ZM42.4628 38.7734C42.3853 38.7966 42.3091 38.824 42.2345 38.8553C41.6788 39.0884 41.2384 39.5326 41.0103 40.0901C40.7821 40.6477 40.7848 41.273 41.0177 41.8285C41.1876 42.2335 41.4713 42.5805 41.8344 42.8277C42.1975 43.0749 42.6246 43.2117 43.0638 43.2215C43.503 43.2312 43.9357 43.1136 44.3095 42.8827C44.6832 42.6519 44.982 42.3178 45.1698 41.9208C45.3575 41.5238 45.4262 41.0809 45.3674 40.6458C45.3086 40.2106 45.1249 39.8018 44.8385 39.4688C44.5522 39.1358 44.1754 38.8928 43.7538 38.7693C43.3321 38.6458 42.8837 38.6471 42.4628 38.7729V38.7734Z" fill="#292A2E"/>
<path d="M43.1169 47.3822C45.443 47.3822 47.3286 46.1235 47.3286 44.5708C47.3286 43.0181 45.443 41.7594 43.1169 41.7594C40.7909 41.7594 38.9053 43.0181 38.9053 44.5708C38.9053 46.1235 40.7909 47.3822 43.1169 47.3822Z" fill="white"/>
<path d="M44.9798 47.5886C44.376 47.7672 43.7494 47.8572 43.1198 47.8556C40.4924 47.8556 38.433 46.4165 38.4307 44.5746C38.4283 42.7327 40.4863 41.2884 43.1131 41.2861C44.2584 41.2642 45.3851 41.5767 46.3552 42.1855C46.7908 42.4124 47.1558 42.7543 47.4106 43.1739C47.6655 43.5936 47.8004 44.075 47.8008 44.5659C47.8012 45.0568 47.667 45.5384 47.4129 45.9585C47.1587 46.3785 46.7942 46.721 46.359 46.9486C45.9335 47.2291 45.4687 47.4447 44.9798 47.5886ZM41.5416 42.4619C40.276 42.8406 39.3784 43.6577 39.3794 44.576C39.3794 45.8437 41.0926 46.9126 43.1188 46.9112C44.077 46.9313 45.0203 46.6719 45.8333 46.1647C46.1383 46.0243 46.3966 45.7994 46.5776 45.5167C46.7585 45.234 46.8546 44.9053 46.8543 44.5697C46.854 44.2341 46.7574 43.9056 46.5759 43.6232C46.3944 43.3408 46.1357 43.1163 45.8304 42.9765C45.0166 42.4709 44.073 42.2133 43.115 42.2352C42.5823 42.2341 42.0523 42.3105 41.5416 42.4619Z" fill="#292A2E"/>
<path d="M44.1499 47.296L44.0505 41.829L42.6902 41.7736L42.595 47.3599L44.1499 47.296Z" fill="#292A2E"/>
<path d="M37.5293 45.7599C37.7695 45.7599 37.9641 45.5654 37.9641 45.3254C37.9641 45.0854 37.7695 44.8908 37.5293 44.8908C37.2892 44.8908 37.0945 45.0854 37.0945 45.3254C37.0945 45.5654 37.2892 45.7599 37.5293 45.7599Z" fill="#292A2E"/>
<path d="M37.8689 43.4347C38.1091 43.4347 38.3037 43.2402 38.3037 43.0001C38.3037 42.7601 38.1091 42.5656 37.8689 42.5656C37.6288 42.5656 37.4341 42.7601 37.4341 43.0001C37.4341 43.2402 37.6288 43.4347 37.8689 43.4347Z" fill="#292A2E"/>
<path d="M182.185 62.8484C182.084 62.8484 181.985 62.8158 181.904 62.7556C181.822 62.6954 181.762 62.6106 181.733 62.5137C180.161 56.6504 179.742 50.5382 180.498 44.5154C181.723 35.7106 186.581 24.155 202.774 19.0951C205.052 18.3629 207.389 17.8274 209.759 17.4946C210.522 12.7338 213.425 7.56504 219.914 4.00051C235.337 -4.46916 245.755 3.12997 245.858 3.2076C245.959 3.28293 246.025 3.39507 246.043 3.51936C246.061 3.64364 246.028 3.76989 245.953 3.87033C245.877 3.97077 245.765 4.03717 245.641 4.05492C245.517 4.07268 245.39 4.04033 245.29 3.965C245.191 3.89116 235.235 -3.33305 220.371 4.83081C214.305 8.16196 211.528 12.9431 210.739 17.3815C217.881 16.6785 221.301 19.0596 222.836 20.8579C223.786 21.9392 224.397 23.276 224.592 24.7018C224.788 26.1276 224.559 27.5793 223.934 28.876C223.44 29.9236 222.64 30.797 221.64 31.3808C220.639 31.9647 219.484 32.2317 218.329 32.1466C214.34 31.9127 211.039 28.5593 209.921 23.603C209.551 21.9253 209.453 20.1993 209.63 18.4906C207.401 18.8106 205.202 19.3159 203.057 20.0011C190.437 23.9448 183.164 32.2379 181.436 44.6484C180.696 50.5345 181.104 56.5083 182.638 62.2391C182.66 62.3099 182.665 62.3848 182.652 62.4578C182.64 62.5307 182.61 62.5997 182.566 62.6593C182.522 62.7188 182.465 62.7672 182.399 62.8005C182.333 62.8338 182.259 62.8512 182.185 62.8512V62.8484ZM210.596 18.3722C210.398 20.0484 210.482 21.7458 210.845 23.3943C211.868 27.9283 214.828 30.9925 218.384 31.2012C219.354 31.2706 220.321 31.0455 221.16 30.5556C222 30.0656 222.671 29.3336 223.087 28.4556C223.628 27.325 223.824 26.0604 223.652 24.819C223.479 23.5776 222.945 22.4143 222.117 21.4738C219.902 18.8764 215.86 17.8274 210.596 18.3722Z" fill="#292A2E"/>
<path d="M256.893 7.99249C256.255 7.99125 255.63 7.80972 255.091 7.46887C254.552 7.12803 254.12 6.64175 253.846 6.06617C253.572 5.49059 253.465 4.84917 253.54 4.21595C253.615 3.58273 253.867 2.98351 254.268 2.48747C254.669 1.99143 255.202 1.61878 255.805 1.41254C256.409 1.20629 257.059 1.17486 257.68 1.32187C258.3 1.46888 258.867 1.78834 259.314 2.24337C259.761 2.69841 260.07 3.27047 260.205 3.89352C260.311 4.38737 260.306 4.89869 260.189 5.39005C260.071 5.88141 259.846 6.34038 259.528 6.73334C259.211 7.12631 258.809 7.44333 258.353 7.66119C257.897 7.87906 257.398 7.99226 256.893 7.99249ZM256.9 2.17753C256.396 2.17742 255.905 2.33349 255.494 2.62423C255.082 2.91496 254.771 3.32605 254.604 3.80083C254.436 4.27561 254.42 4.79071 254.557 5.27512C254.694 5.75953 254.979 6.18941 255.371 6.5055C255.763 6.82159 256.244 7.00833 256.747 7.03998C257.249 7.07163 257.75 6.94664 258.178 6.68222C258.607 6.41781 258.943 6.027 259.14 5.56365C259.338 5.10031 259.386 4.58724 259.279 4.09518C259.165 3.55041 258.865 3.06194 258.432 2.71248C257.998 2.36302 257.457 2.17403 256.9 2.17753Z" fill="#292A2E"/>
<path d="M255.466 15.7185C254.598 15.7183 253.763 15.3855 253.133 14.7886C252.503 14.1917 252.126 13.3762 252.08 12.5098C252.033 11.6435 252.321 10.7923 252.883 10.1314C253.446 9.47058 254.24 9.0504 255.103 8.95737C255.967 8.86435 256.832 9.10556 257.523 9.63135C258.213 10.1571 258.676 10.9275 258.815 11.7838C258.955 12.6402 258.76 13.5173 258.272 14.2347C257.784 14.9522 257.039 15.4552 256.191 15.6404C255.953 15.6923 255.71 15.7185 255.466 15.7185ZM255.479 9.90305C255.304 9.90315 255.129 9.92204 254.958 9.95938C254.353 10.0922 253.822 10.4517 253.474 10.9639C253.126 11.4762 252.988 12.1022 253.088 12.7132C253.187 13.3242 253.518 13.8737 254.011 14.2486C254.504 14.6236 255.122 14.7954 255.738 14.7288C256.353 14.6622 256.92 14.3623 257.322 13.8907C257.723 13.419 257.928 12.8116 257.895 12.1934C257.862 11.5752 257.593 10.9932 257.143 10.5672C256.694 10.1411 256.098 9.90346 255.479 9.90305Z" fill="#292A2E"/>
<path d="M260.553 9.37572C260.852 7.75883 259.13 6.08595 256.708 5.63924C254.286 5.19253 252.08 6.14115 251.782 7.75804C251.483 9.37493 253.205 11.0478 255.627 11.4945C258.049 11.9412 260.255 10.9926 260.553 9.37572Z" fill="white"/>
<path d="M256.822 12.0787C256.393 12.078 255.965 12.0384 255.543 11.9603C254.352 11.7628 253.244 11.2222 252.356 10.4048C251.967 10.0733 251.668 9.64912 251.487 9.17154C251.305 8.69397 251.248 8.1784 251.318 7.67249C251.433 7.1747 251.671 6.71381 252.011 6.33239C252.351 5.95098 252.782 5.66134 253.264 5.49022C254.39 5.06475 255.612 4.95531 256.797 5.17374C257.981 5.39218 259.083 5.93017 259.984 6.72953C260.373 7.06107 260.672 7.48523 260.853 7.96281C261.035 8.44038 261.093 8.95595 261.022 9.46186C260.907 9.95965 260.669 10.4205 260.329 10.802C259.989 11.1834 259.558 11.473 259.077 11.6441C258.362 11.9396 257.595 12.0875 256.822 12.0787ZM255.514 6.00147C254.871 5.9933 254.233 6.11519 253.638 6.35982C253.301 6.47246 252.998 6.66718 252.755 6.92638C252.513 7.18557 252.339 7.50107 252.249 7.84433C252.21 8.19699 252.26 8.55382 252.394 8.88242C252.528 9.21103 252.742 9.501 253.016 9.726C253.782 10.3943 254.714 10.8443 255.714 11.0288C256.714 11.2133 257.746 11.1254 258.7 10.7745C259.037 10.6619 259.34 10.4672 259.582 10.208C259.824 9.9488 259.998 9.63328 260.088 9.29002C260.127 8.93738 260.077 8.58063 259.943 8.25207C259.809 7.92351 259.595 7.63352 259.321 7.40835C258.567 6.7209 257.629 6.26802 256.621 6.10514C256.256 6.03716 255.885 6.00246 255.514 6.00147Z" fill="#292A2E"/>
<path d="M255.621 5.52998L254.668 11.2418L256.074 11.5618L257.252 5.76336L255.621 5.52998Z" fill="#292A2E"/>
<path d="M261.331 11.6749C261.585 11.6749 261.791 11.4689 261.791 11.2148C261.791 10.9607 261.585 10.7546 261.331 10.7546C261.076 10.7546 260.87 10.9607 260.87 11.2148C260.87 11.4689 261.076 11.6749 261.331 11.6749Z" fill="#292A2E"/>
<path d="M262.133 9.31937C262.387 9.31937 262.593 9.11337 262.593 8.85925C262.593 8.60513 262.387 8.39912 262.133 8.39912C261.879 8.39912 261.673 8.60513 261.673 8.85925C261.673 9.11337 261.879 9.31937 262.133 9.31937Z" fill="#292A2E"/>
<path d="M263.091 94.8174V271.624C263.091 273.641 262.289 275.576 260.861 277.002C259.434 278.429 257.498 279.23 255.48 279.23H31.838C29.8194 279.23 27.8835 278.429 26.4562 277.002C25.0288 275.576 24.227 273.641 24.227 271.624V129.336C24.2271 127.319 25.029 125.384 26.4563 123.957C27.8836 122.531 29.8194 121.73 31.838 121.729H165.982C168.001 121.729 169.937 120.928 171.364 119.501C172.792 118.075 173.593 116.14 173.593 114.123V94.8174C173.593 92.8 174.395 90.8652 175.823 89.4387C177.25 88.0121 179.186 87.2107 181.204 87.2107H255.48C257.498 87.2107 259.434 88.0121 260.861 89.4387C262.289 90.8652 263.091 92.8 263.091 94.8174Z" fill="#FFCF00"/>
<path d="M255.48 279.703H31.8385C29.695 279.701 27.6401 278.849 26.1244 277.334C24.6087 275.82 23.756 273.766 23.7533 271.624V129.336C23.756 127.194 24.6087 125.14 26.1244 123.626C27.6401 122.111 29.695 121.259 31.8385 121.256H165.983C167.875 121.254 169.689 120.502 171.028 119.165C172.366 117.827 173.118 116.014 173.12 114.123V94.8174C173.123 92.6753 173.975 90.6215 175.491 89.1067C177.006 87.592 179.061 86.7399 181.205 86.7374H255.48C257.623 86.7397 259.678 87.5918 261.194 89.1066C262.709 90.6214 263.562 92.6752 263.564 94.8174V271.624C263.562 273.766 262.709 275.82 261.194 277.334C259.678 278.849 257.623 279.701 255.48 279.703ZM31.8385 122.203C29.9462 122.205 28.1319 122.957 26.7938 124.295C25.4556 125.632 24.7029 127.445 24.7006 129.336V271.624C24.7027 273.515 25.4555 275.328 26.7936 276.666C28.1318 278.003 29.9461 278.755 31.8385 278.757H255.48C257.372 278.755 259.186 278.003 260.524 276.665C261.862 275.328 262.615 273.515 262.617 271.624V94.8174C262.615 92.9262 261.862 91.1131 260.524 89.7758C259.186 88.4385 257.372 87.6862 255.48 87.6841H181.205C179.312 87.6864 177.498 88.4386 176.16 89.7759C174.822 91.1132 174.07 92.9263 174.068 94.8174V114.121C174.065 116.264 173.213 118.317 171.697 119.832C170.181 121.347 168.126 122.199 165.983 122.202L31.8385 122.203Z" fill="#262626"/>
<path d="M277.3 94.8174V271.624C277.3 273.641 276.498 275.576 275.071 277.002C273.644 278.429 271.708 279.23 269.689 279.23H46.0474C44.0288 279.23 42.0929 278.429 40.6656 277.002C39.2382 275.576 38.4363 273.641 38.4363 271.624V129.336C38.4365 127.319 39.2384 125.384 40.6657 123.957C42.093 122.531 44.0288 121.73 46.0474 121.729H180.192C182.21 121.729 184.146 120.928 185.574 119.501C187.001 118.075 187.803 116.14 187.803 114.123V94.8174C187.803 92.8 188.605 90.8652 190.032 89.4387C191.459 88.0121 193.395 87.2107 195.414 87.2107H269.689C271.708 87.2107 273.644 88.0121 275.071 89.4387C276.498 90.8652 277.3 92.8 277.3 94.8174Z" fill="white"/>
<path d="M269.689 279.703H46.0478C43.9044 279.701 41.8495 278.849 40.3338 277.334C38.818 275.82 37.9653 273.766 37.9627 271.624V129.336C37.9653 127.194 38.818 125.14 40.3338 123.626C41.8495 122.111 43.9044 121.259 46.0478 121.256H180.192C182.085 121.254 183.899 120.502 185.237 119.165C186.575 117.827 187.328 116.014 187.33 114.123V94.8174C187.332 92.6753 188.185 90.6215 189.7 89.1067C191.216 87.592 193.271 86.7399 195.414 86.7374H269.689C271.833 86.7397 273.888 87.5918 275.403 89.1066C276.919 90.6214 277.771 92.6752 277.774 94.8174V271.624C277.771 273.766 276.919 275.82 275.403 277.334C273.887 278.849 271.833 279.701 269.689 279.703ZM46.0478 122.203C44.1555 122.205 42.3413 122.957 41.0032 124.295C39.665 125.632 38.9123 127.445 38.91 129.336V271.624C38.9121 273.515 39.6648 275.328 41.003 276.666C42.3412 278.003 44.1555 278.755 46.0478 278.757H269.689C271.581 278.755 273.396 278.003 274.734 276.665C276.072 275.328 276.824 273.515 276.826 271.624V94.8174C276.824 92.9262 276.072 91.1131 274.734 89.7758C273.396 88.4385 271.581 87.6862 269.689 87.6841H195.414C193.522 87.6864 191.708 88.4386 190.37 89.7759C189.032 91.1132 188.279 92.9263 188.277 94.8174V114.121C188.275 116.264 187.422 118.317 185.906 119.832C184.391 121.347 182.336 122.199 180.192 122.202L46.0478 122.203Z" fill="#262626"/>
<path d="M139.823 184.013C142.73 184.013 145.086 181.658 145.086 178.753C145.086 175.848 142.73 173.493 139.823 173.493C136.916 173.493 134.56 175.848 134.56 178.753C134.56 181.658 136.916 184.013 139.823 184.013Z" fill="#292A2E"/>
<path d="M175.913 184.013C178.82 184.013 181.177 181.658 181.177 178.753C181.177 175.848 178.82 173.493 175.913 173.493C173.007 173.493 170.65 175.848 170.65 178.753C170.65 181.658 173.007 184.013 175.913 184.013Z" fill="#292A2E"/>
<path d="M164.925 192.476H150.812V193.423H164.925V192.476Z" fill="#262626"/>
<g opacity="0.1">
<path d="M134.394 193.8C136.987 193.8 139.089 192.694 139.089 191.33C139.089 189.966 136.987 188.86 134.394 188.86C131.801 188.86 129.698 189.966 129.698 191.33C129.698 192.694 131.801 193.8 134.394 193.8Z" fill="#FFCF00"/>
<path d="M181.343 193.8C183.936 193.8 186.039 192.694 186.039 191.33C186.039 189.966 183.936 188.86 181.343 188.86C178.75 188.86 176.648 189.966 176.648 191.33C176.648 192.694 178.75 193.8 181.343 193.8Z" fill="#FFCF00"/>
</g>
</g>
<defs>
<clipPath id="clip0_6_1396">
<rect width="311" height="341" fill="white"/>
</clipPath>
</defs>
</svg>
