<svg width="290" height="264" viewBox="0 0 290 264" fill="none" xmlns="http://www.w3.org/2000/svg">
<g clip-path="url(#clip0_1_487)">
<g opacity="0.7">
<path d="M231.911 2.02067H188.292V53.6468H231.911V2.02067Z" fill="#FFCF00" fill-opacity="0.2"/>
<path d="M231.911 53.6468H233.326V2.02067H231.911V53.6468Z" fill="#FFCF00" fill-opacity="0.2"/>
<path opacity="0.05" d="M231.911 53.6468H233.326V2.02067H231.911V53.6468Z" fill="#292A2E"/>
<path opacity="0.05" d="M223.965 12.3473H196.238V43.3205H223.965V12.3473Z" fill="#292A2E"/>
<path opacity="0.03" d="M223.965 12.3473H222.52V43.3205H223.965V12.3473Z" fill="#292A2E"/>
<path d="M267.585 67.5875H231.911V103.533H267.585V67.5875Z" fill="#FFCF00" fill-opacity="0.2"/>
<path opacity="0.05" d="M261.087 74.1355H238.41V96.9853H261.087V74.1355Z" fill="#292A2E"/>
<path d="M267.585 103.533H269V67.5875H267.585V103.533Z" fill="#FFCF00" fill-opacity="0.2"/>
<path opacity="0.05" d="M267.585 103.533H269V67.5875H267.585V103.533Z" fill="#292A2E"/>
<path opacity="0.03" d="M261.086 74.1355H259.641V96.9853H261.086V74.1355Z" fill="#292A2E"/>
</g>
<g opacity="0.7">
<path d="M142.6 0H39.9067V102.535H142.6V0Z" fill="#FFCF00" fill-opacity="0.2"/>
<path d="M39.9067 0H38.7296V102.535H39.9067V0Z" fill="#F4F4F4"/>
<path opacity="0.05" d="M39.9067 0H38.7296V102.535H39.9067V0Z" fill="#292A2E"/>
<path opacity="0.05" d="M64.7845 70.6548V43.8285H86.7931V59.4139H120.885V87.0102H135.374V102.535H120.885H118.093H44.8466V70.6548H64.7845Z" fill="#292A2E"/>
<path opacity="0.34" d="M83.9683 46.7412H67.9413V49.6538H83.9683V46.7412Z" fill="#FFFFFA"/>
<path opacity="0.34" d="M83.9683 52.7771H67.9413V55.6898H83.9683V52.7771Z" fill="#FFFFFA"/>
<path opacity="0.34" d="M83.9683 58.8128H67.9413V61.7254H83.9683V58.8128Z" fill="#FFFFFA"/>
<path opacity="0.34" d="M50.6426 73.4822H47.6887V76.3948H50.6426V73.4822Z" fill="#FFFFFA"/>
<path opacity="0.34" d="M50.6426 79.5181H47.6887V82.4308H50.6426V79.5181Z" fill="#FFFFFA"/>
<path opacity="0.34" d="M50.6426 85.5538H47.6887V88.4665H50.6426V85.5538Z" fill="#FFFFFA"/>
<path opacity="0.34" d="M56.1076 73.4822H53.1537V76.3948H56.1076V73.4822Z" fill="#FFFFFA"/>
<path opacity="0.34" d="M56.1076 79.5181H53.1537V82.4308H56.1076V79.5181Z" fill="#FFFFFA"/>
<path opacity="0.34" d="M56.1076 85.5538H53.1537V88.4665H56.1076V85.5538Z" fill="#FFFFFA"/>
<path opacity="0.34" d="M61.4247 73.4822H58.4708V76.3948H61.4247V73.4822Z" fill="#FFFFFA"/>
<path opacity="0.34" d="M61.4247 79.5181H58.4708V82.4308H61.4247V79.5181Z" fill="#FFFFFA"/>
<path opacity="0.34" d="M61.4247 85.5538H58.4708V88.4665H61.4247V85.5538Z" fill="#FFFFFA"/>
<path d="M39.9067 50.6921H60.5702V0H62.2792V50.6921H118.094V0H119.803V50.6921H142.6V52.3984H119.803V102.535H118.094V52.3984H62.2792V102.535H60.5702V52.3984H39.9067V50.6921Z" fill="white"/>
<path d="M146.69 102.411H35.8158V105.821H146.69V102.411Z" fill="#F4F4F4"/>
<path opacity="0.1" d="M146.69 102.411H35.8158V105.821H146.69V102.411Z" fill="#292A2E"/>
<path opacity="0.1" d="M35.8158 102.411H34.2151V105.821H35.8158V102.411Z" fill="#292A2E"/>
<path opacity="0.1" d="M35.8158 102.411H34.2151V105.821H35.8158V102.411Z" fill="#292A2E"/>
</g>
<path d="M99.1762 12.732H219.376C221.107 12.732 222.768 13.4188 223.992 14.6412C225.216 15.8636 225.904 17.5216 225.904 19.2504V162.993C225.904 164.759 225.201 166.453 223.95 167.702C222.699 168.951 221.003 169.653 219.234 169.653H99.3185C97.5494 169.653 95.8527 168.951 94.6018 167.702C93.3508 166.453 92.6481 164.759 92.6481 162.993V19.2496C92.6483 17.521 93.3361 15.8633 94.5604 14.641C95.7846 13.4188 97.445 12.7321 99.1762 12.732Z" fill="white"/>
<path d="M219.234 169.906H99.3184C97.4821 169.906 95.721 169.178 94.4225 167.881C93.124 166.585 92.3945 164.826 92.3945 162.993V18.9965C92.3947 17.2679 93.0825 15.6101 94.3068 14.3878C95.531 13.1655 97.1914 12.4789 98.9227 12.4789H219.629C221.36 12.4789 223.021 13.1656 224.245 14.388C225.47 15.6104 226.157 17.2683 226.158 18.997V162.993C226.158 164.826 225.428 166.585 224.13 167.881C222.831 169.178 221.07 169.906 219.234 169.906ZM92.9016 19.2388V162.993C92.9015 163.834 93.0675 164.667 93.3899 165.445C93.7124 166.222 94.1851 166.928 94.7809 167.523C95.3768 168.118 96.0842 168.59 96.8628 168.912C97.6413 169.234 98.4758 169.4 99.3184 169.4H219.234C220.935 169.4 222.568 168.725 223.771 167.523C224.974 166.322 225.65 164.692 225.65 162.993V19.1755C225.65 18.3624 225.49 17.5574 225.178 16.8063C224.867 16.0552 224.41 15.3728 223.834 14.7979C223.258 14.2231 222.574 13.7672 221.822 13.4561C221.07 13.1451 220.263 12.985 219.449 12.9851H99.1653C97.5042 12.9851 95.911 13.644 94.7364 14.8167C93.5617 15.9895 92.9017 17.5801 92.9016 19.2388Z" fill="#292A2E"/>
<path d="M118.498 43.9361H103.931C103.119 43.9351 102.341 43.6128 101.767 43.0397C101.193 42.4666 100.87 41.6896 100.869 40.8791V26.3348C100.87 25.5242 101.193 24.747 101.767 24.1739C102.341 23.6007 103.119 23.2782 103.931 23.2773H118.498C119.31 23.2782 120.088 23.6006 120.662 24.1738C121.236 24.7469 121.559 25.5241 121.56 26.3348V40.8791C121.559 41.6897 121.236 42.4667 120.662 43.0398C120.088 43.6129 119.309 43.9352 118.498 43.9361ZM103.931 23.783C103.254 23.7838 102.604 24.0529 102.125 24.5312C101.646 25.0094 101.377 25.6579 101.376 26.3343V40.8791C101.377 41.5555 101.646 42.2039 102.125 42.6822C102.604 43.1605 103.254 43.4295 103.931 43.4303H118.498C119.175 43.4296 119.825 43.1606 120.304 42.6823C120.783 42.204 121.052 41.5555 121.053 40.8791V26.3348C121.052 25.6583 120.783 25.0099 120.304 24.5316C119.825 24.0533 119.175 23.7843 118.498 23.7835L103.931 23.783Z" fill="#292A2E"/>
<path d="M118.498 72.7509H103.931C103.119 72.75 102.341 72.4275 101.767 71.8544C101.193 71.2812 100.87 70.504 100.869 69.6934V55.1493C100.87 54.3387 101.193 53.5615 101.767 52.9883C102.341 52.415 103.119 52.0926 103.931 52.0916H118.498C119.31 52.0926 120.088 52.415 120.662 52.9883C121.236 53.5615 121.559 54.3387 121.56 55.1493V69.6934C121.559 70.5041 121.236 71.2813 120.662 71.8545C120.088 72.4276 119.31 72.75 118.498 72.7509ZM103.931 52.5986C103.254 52.5994 102.604 52.8685 102.125 53.3469C101.646 53.8252 101.377 54.4737 101.376 55.1501V69.6942C101.377 70.3706 101.646 71.0191 102.125 71.4974C102.604 71.9757 103.254 72.2447 103.931 72.2454H118.498C119.175 72.2447 119.825 71.9757 120.304 71.4974C120.783 71.0191 121.052 70.3706 121.053 69.6942V55.1493C121.052 54.4729 120.783 53.8244 120.304 53.3461C119.825 52.8678 119.175 52.5987 118.498 52.5979L103.931 52.5986Z" fill="#292A2E"/>
<path d="M118.498 101.566H103.931C103.119 101.565 102.341 101.242 101.767 100.669C101.193 100.096 100.87 99.3189 100.869 98.5083V83.9642C100.87 83.1536 101.193 82.3765 101.767 81.8033C102.341 81.2301 103.119 80.9077 103.931 80.9067H118.498C119.31 80.9076 120.088 81.23 120.662 81.8032C121.236 82.3764 121.559 83.1535 121.56 83.9642V98.5083C121.559 99.3189 121.236 100.096 120.662 100.669C120.088 101.242 119.31 101.565 118.498 101.566ZM103.931 81.413C103.254 81.4137 102.604 81.6827 102.125 82.161C101.646 82.6393 101.377 83.2878 101.376 83.9642V98.5083C101.377 99.1847 101.646 99.8332 102.125 100.311C102.604 100.79 103.254 101.059 103.931 101.06H118.498C119.175 101.059 119.825 100.79 120.304 100.311C120.783 99.8332 121.052 99.1847 121.053 98.5083V83.9642C121.052 83.2878 120.783 82.6393 120.304 82.161C119.825 81.6827 119.175 81.4137 118.498 81.413H103.931Z" fill="#292A2E"/>
<path d="M118.498 129.985H103.931C103.119 129.984 102.341 129.661 101.767 129.088C101.193 128.515 100.87 127.738 100.869 126.927V112.383C100.87 111.573 101.193 110.795 101.767 110.222C102.341 109.649 103.119 109.326 103.931 109.325H118.498C119.31 109.326 120.088 109.649 120.662 110.222C121.236 110.795 121.559 111.572 121.56 112.383V126.927C121.559 127.738 121.236 128.515 120.662 129.088C120.088 129.661 119.31 129.984 118.498 129.985ZM103.931 109.832C103.254 109.832 102.604 110.101 102.125 110.58C101.646 111.058 101.377 111.707 101.376 112.383V126.927C101.377 127.604 101.646 128.252 102.125 128.73C102.604 129.209 103.254 129.478 103.931 129.478H118.498C119.175 129.478 119.825 129.209 120.304 128.73C120.783 128.252 121.052 127.604 121.053 126.927V112.383C121.052 111.707 120.783 111.058 120.304 110.58C119.825 110.101 119.175 109.832 118.498 109.832H103.931Z" fill="#292A2E"/>
<path d="M118.498 158.403H103.931C103.119 158.402 102.341 158.08 101.767 157.507C101.193 156.934 100.87 156.156 100.869 155.346V140.802C100.87 139.991 101.193 139.214 101.767 138.641C102.341 138.068 103.119 137.745 103.931 137.744H118.498C119.31 137.745 120.088 138.068 120.662 138.641C121.236 139.214 121.559 139.991 121.56 140.802V155.346C121.559 156.157 121.236 156.934 120.662 157.507C120.088 158.08 119.309 158.402 118.498 158.403ZM103.931 138.25C103.254 138.251 102.604 138.52 102.125 138.998C101.646 139.477 101.377 140.125 101.376 140.802V155.346C101.377 156.022 101.646 156.671 102.125 157.149C102.604 157.627 103.254 157.896 103.931 157.897H118.498C119.175 157.896 119.825 157.627 120.304 157.149C120.783 156.671 121.052 156.022 121.053 155.346V140.802C121.052 140.125 120.783 139.477 120.304 138.999C119.825 138.52 119.175 138.251 118.498 138.25L103.931 138.25Z" fill="#292A2E"/>
<path d="M108.623 68.24C108.361 68.2402 108.109 68.1389 107.921 67.9573L103.675 63.882C103.579 63.7899 103.502 63.6798 103.448 63.558C103.395 63.4361 103.366 63.305 103.364 63.1721C103.361 63.0391 103.385 62.907 103.433 62.7832C103.482 62.6593 103.554 62.5462 103.646 62.4504C103.739 62.3545 103.849 62.2777 103.971 62.2244C104.093 62.1711 104.224 62.1423 104.357 62.1397C104.491 62.1371 104.623 62.1606 104.747 62.2091C104.871 62.2575 104.984 62.3299 105.08 62.422L108.606 65.8065L117.444 56.9017C117.634 56.7141 117.89 56.609 118.157 56.6091C118.424 56.6092 118.681 56.7145 118.871 56.9023C119.06 57.09 119.168 57.3449 119.171 57.6117C119.173 57.8784 119.071 58.1354 118.884 58.3268L109.344 67.9391C109.249 68.0344 109.137 68.1101 109.014 68.1618C108.89 68.2135 108.757 68.2401 108.623 68.24Z" fill="#0CBC8B"/>
<path opacity="0.5" d="M214.952 29.1031H129.521C129.131 29.1031 128.814 29.4194 128.814 29.8096C128.814 30.1998 129.131 30.5161 129.521 30.5161H214.952C215.343 30.5161 215.659 30.1998 215.659 29.8096C215.659 29.4194 215.343 29.1031 214.952 29.1031Z" fill="#262626"/>
<path opacity="0.5" d="M184.53 36.6968H129.521C129.131 36.6968 128.814 37.0131 128.814 37.4033C128.814 37.7934 129.131 38.1097 129.521 38.1097H184.53C184.921 38.1097 185.238 37.7934 185.238 37.4033C185.238 37.0131 184.921 36.6968 184.53 36.6968Z" fill="#262626"/>
<path opacity="0.5" d="M214.952 57.918H129.521C129.131 57.918 128.814 58.2343 128.814 58.6244C128.814 59.0146 129.131 59.3309 129.521 59.3309H214.952C215.343 59.3309 215.659 59.0146 215.659 58.6244C215.659 58.2343 215.343 57.918 214.952 57.918Z" fill="#262626"/>
<path opacity="0.5" d="M184.53 65.5116H129.521C129.131 65.5116 128.814 65.8279 128.814 66.2181C128.814 66.6083 129.131 66.9246 129.521 66.9246H184.53C184.921 66.9246 185.238 66.6083 185.238 66.2181C185.238 65.8279 184.921 65.5116 184.53 65.5116Z" fill="#262626"/>
<path opacity="0.5" d="M214.952 86.7328H129.521C129.131 86.7328 128.814 87.0491 128.814 87.4393C128.814 87.8295 129.131 88.1458 129.521 88.1458H214.952C215.343 88.1458 215.659 87.8295 215.659 87.4393C215.659 87.0491 215.343 86.7328 214.952 86.7328Z" fill="#262626"/>
<path opacity="0.5" d="M184.53 94.3265H129.521C129.131 94.3265 128.814 94.6428 128.814 95.0329C128.814 95.4231 129.131 95.7394 129.521 95.7394H184.53C184.921 95.7394 185.238 95.4231 185.238 95.0329C185.238 94.6428 184.921 94.3265 184.53 94.3265Z" fill="#262626"/>
<path opacity="0.5" d="M214.952 115.152H129.521C129.131 115.152 128.814 115.468 128.814 115.858C128.814 116.248 129.131 116.565 129.521 116.565H214.952C215.343 116.565 215.659 116.248 215.659 115.858C215.659 115.468 215.343 115.152 214.952 115.152Z" fill="#262626"/>
<path opacity="0.5" d="M184.53 122.745H129.521C129.131 122.745 128.814 123.062 128.814 123.452C128.814 123.842 129.131 124.158 129.521 124.158H184.53C184.921 124.158 185.238 123.842 185.238 123.452C185.238 123.062 184.921 122.745 184.53 122.745Z" fill="#262626"/>
<path opacity="0.5" d="M214.952 143.571H129.521C129.131 143.571 128.814 143.887 128.814 144.277C128.814 144.667 129.131 144.983 129.521 144.983H214.952C215.343 144.983 215.659 144.667 215.659 144.277C215.659 143.887 215.343 143.571 214.952 143.571Z" fill="#262626"/>
<path opacity="0.5" d="M184.53 151.164H129.521C129.131 151.164 128.814 151.48 128.814 151.871C128.814 152.261 129.131 152.577 129.521 152.577H184.53C184.921 152.577 185.238 152.261 185.238 151.871C185.238 151.48 184.921 151.164 184.53 151.164Z" fill="#262626"/>
<path d="M107.892 38.7848C107.965 38.6034 108.097 38.4512 108.265 38.3511C108.434 38.2511 108.63 38.2088 108.825 38.2307C108.825 38.215 108.812 38.177 108.839 38.1773L108.205 37.7774C108.016 37.6635 107.874 37.4851 107.806 37.275C107.738 37.0648 107.748 36.8372 107.836 36.6343C107.928 36.4365 108.091 36.2801 108.292 36.1954C108.494 36.1107 108.719 36.1037 108.926 36.1759C108.924 36.1673 108.929 36.1587 108.93 36.1506L108.669 35.9863C108.491 35.8783 108.356 35.7122 108.286 35.5161C108.217 35.3199 108.217 35.1058 108.287 34.91C108.334 34.7882 108.407 34.6782 108.502 34.5881C108.596 34.4979 108.709 34.4298 108.833 34.3886C108.957 34.3475 109.089 34.3343 109.219 34.35C109.348 34.3658 109.473 34.4101 109.583 34.4797L110.185 34.8594C110.187 34.8558 110.185 34.852 110.187 34.8487C110.188 34.8455 110.195 34.8439 110.198 34.8401C110.057 34.6989 109.968 34.514 109.946 34.3157C109.923 34.1173 109.969 33.9173 110.076 33.7484C110.323 33.2946 110.957 33.3472 111.346 33.5925L112.512 34.4605C112.692 34.5944 112.836 34.7706 112.931 34.9735C113.026 35.1764 113.07 35.3996 113.057 35.6233C112.954 37.5592 112.561 42.6094 111.32 41.8248L108.262 39.8975C108.085 39.7797 107.953 39.6063 107.886 39.4047C107.818 39.2032 107.821 38.985 107.892 38.7848Z" fill="#E98862"/>
<path d="M108.623 39.1366C108.361 39.1368 108.109 39.0354 107.921 38.8539L103.675 34.7786C103.577 34.6868 103.499 34.5767 103.444 34.4545C103.39 34.3323 103.36 34.2006 103.357 34.0669C103.353 33.9331 103.377 33.8001 103.425 33.6754C103.474 33.5507 103.547 33.4368 103.639 33.3404C103.732 33.244 103.843 33.1669 103.966 33.1135C104.089 33.0602 104.221 33.0317 104.355 33.0297C104.489 33.0277 104.622 33.0522 104.747 33.1019C104.871 33.1515 104.984 33.2253 105.08 33.3189L108.606 36.7026L117.444 27.7986C117.537 27.7041 117.649 27.629 117.772 27.5776C117.894 27.5261 118.026 27.4993 118.159 27.4987C118.293 27.4981 118.425 27.5237 118.548 27.574C118.671 27.6243 118.783 27.6984 118.878 27.792C118.972 27.8856 119.048 27.9968 119.099 28.1194C119.151 28.2421 119.178 28.3736 119.178 28.5066C119.179 28.6395 119.153 28.7713 119.103 28.8944C119.052 29.0175 118.978 29.1294 118.884 29.2239L109.343 38.8362C109.249 38.9314 109.137 39.0071 109.014 39.0586C108.89 39.1102 108.757 39.1367 108.623 39.1366Z" fill="#0CBC8B"/>
<path d="M105.702 36.6651C105.723 36.5177 105.774 36.3761 105.852 36.2491C105.93 36.122 106.033 36.0121 106.155 35.9261C106.276 35.8401 106.414 35.7798 106.56 35.7488C106.706 35.7179 106.857 35.7169 107.003 35.7461C107.284 35.8124 107.53 35.9827 107.69 36.2227C107.85 36.4627 107.914 36.7544 107.867 37.039L107.836 38.5934C107.83 38.9222 107.944 39.242 108.158 39.4924C108.371 39.7428 108.669 39.9066 108.995 39.9527C109.315 39.9979 109.64 39.9272 109.912 39.7534C110.184 39.5795 110.384 39.3141 110.476 39.0053L111.271 36.3518L110.407 35.0642C110.709 34.5782 110.963 33.3214 111.486 33.6958C111.929 33.9707 112.935 34.6354 113.21 35.2651C113.215 35.2677 113.73 40.671 113.45 41.1216L110.971 47.7422C109.782 49.6538 104.043 48.1746 104.043 48.1746L105.702 36.6651Z" fill="#E98862"/>
<path d="M108.606 36.7026L117.444 27.7986C117.537 27.7041 117.649 27.629 117.772 27.5776C117.894 27.5261 118.026 27.4993 118.159 27.4987C118.292 27.4981 118.424 27.5237 118.548 27.574C118.671 27.6243 118.783 27.6984 118.878 27.792C118.972 27.8856 119.048 27.9968 119.099 28.1194C119.151 28.2421 119.177 28.3736 119.178 28.5066C119.179 28.6395 119.153 28.7713 119.103 28.8944C119.052 29.0175 118.978 29.1294 118.884 29.2239L109.343 38.8362" fill="#0CBC8B"/>
<path d="M63.5008 82.7224L99.268 79.7171C101.901 79.7862 104.195 77.6 105.16 75.1467L114.531 45.8206L102.273 41.0092L94.001 66.1297L62.545 68.3279L63.5008 82.7224Z" fill="#FFCF00"/>
<path d="M42.7331 220.798C42.7331 220.798 43.8777 226.721 49.4329 227.052C54.9881 227.383 53.7834 231.801 53.7834 231.801H32.5546V221.211L42.7331 220.798Z" fill="#367CFF"/>
<path d="M36.1853 112.732C36.1853 112.732 36.252 110.951 36.2378 114.991C36.1853 130.059 35.9234 147.27 35.2836 157.342C34.2551 173.533 31.6178 224.578 31.6178 224.578L45.5675 224.461L59.0878 112.12L36.1853 112.732Z" fill="#262626"/>
<path d="M51.9384 130.501C51.9384 130.501 52.5164 141.436 52.6228 144.003C52.8708 149.94 52.957 156.087 52.957 163.056L55.1564 144.785C55.1564 144.785 53.5474 139.06 51.9384 130.501Z" fill="#0A0A0A"/>
<path d="M67.5673 220.798C67.5673 220.798 68.7119 226.721 74.2671 227.052C79.8223 227.383 78.6176 231.801 78.6176 231.801H57.3888V221.211L67.5673 220.798Z" fill="#367CFF"/>
<path d="M74.3216 113.902C74.3216 113.902 75.5572 165.401 75.3762 167.918L70.1886 224.187L56.4693 224.441L57.8063 165.883C57.8063 165.883 56.8632 149.729 52.9543 134.73C50.9544 127.032 49.7507 119.149 49.3623 111.206L74.3216 113.902Z" fill="#262626"/>
<path d="M36.0332 112.731L35.9875 112.733C35.9875 112.733 36.0208 111.854 36.0332 112.731Z" fill="#333333"/>
<path d="M76.2854 86.8358C75.9979 90.2105 74.5982 109.746 74.3216 113.902H36.2006C35.9853 110.153 35.0182 93.76 34.2016 86.4288C33.4221 79.4331 31.8926 75.9306 33.0137 73.8624C34.8455 70.4822 39.8514 68.5291 43.2647 68.0676C45.349 67.7859 63.1187 67.5834 63.1613 67.5834C64.5571 67.5834 72.6847 68.2385 74.4814 69.62C77.7321 72.1199 76.7878 80.951 76.2854 86.8358Z" fill="#FFCF00"/>
<path d="M76.8119 81.7033C76.8443 81.7034 76.8754 81.691 76.899 81.6689C76.9226 81.6467 76.9368 81.6164 76.9386 81.5841L77.2462 76.7315C77.2481 76.698 77.2366 76.6651 77.2143 76.64C77.1919 76.615 77.1605 76.5998 77.127 76.5978C77.0936 76.5963 77.0608 76.6079 77.0358 76.6301C77.0108 76.6523 76.9955 76.6835 76.9931 76.7168L76.6856 81.5694C76.6837 81.6029 76.6952 81.6358 76.7175 81.6608C76.7398 81.6859 76.7712 81.7011 76.8048 81.703L76.8119 81.7033Z" fill="#0C0C0C"/>
<path d="M27.9589 113.682C26.8378 113.681 25.7333 113.41 24.7396 112.892C23.7458 112.374 22.8921 111.624 22.2511 110.706C21.6102 109.787 21.2008 108.728 21.058 107.618C20.9152 106.507 21.0432 105.379 21.4309 104.329C21.8236 103.262 31.0565 78.8506 32.8136 74.3273L45.8287 79.5923C44.84 82.1354 41.2596 91.7753 38.3828 99.541L43.162 99.0224L44.6663 112.839L28.7115 113.641C28.4616 113.668 28.2103 113.682 27.9589 113.682Z" fill="#FFCF00"/>
<path d="M67.7029 67.1217C67.6603 67.1162 66.4908 71.5098 57.3652 70.8259C51.0477 70.3533 49.5063 66.0599 49.3623 66.0599C50.0435 65.9154 51.1498 65.7653 51.4523 65.6043C52.447 65.0704 53.1718 64.4209 53.5364 63.0265C53.8216 61.9363 53.9673 57.7388 53.9673 55.6328L63.6888 57.814C63.5531 60.1895 62.6047 65.6969 65.9288 66.6717C66.4817 66.8327 67.0775 66.9807 67.7029 67.1217Z" fill="#E98862"/>
<path d="M63.3522 62.484C59.5199 62.786 54.5967 61.1703 53.6615 56.0651L52.8178 51.4583C51.8826 46.3531 53.81 41.724 58.6245 40.8449C63.4387 39.9659 67.7953 43.4475 68.7302 48.5527L69.1039 50.5921C69.4626 52.5513 70.1899 61.9454 63.3522 62.484Z" fill="#E98862"/>
<path d="M66.9057 57.7967C66.2179 54.3457 65.9023 52.043 65.939 49.6141C66.908 47.9182 66.6532 45.9691 66.4329 45.1278C67.1002 45.5509 67.8848 45.7517 68.6737 45.7013C68.6737 45.7013 67.0712 39.2801 61.6248 37.5523C60.6232 37.1633 58.066 36.6717 54.6707 37.1367C51.7829 37.5321 44.6643 39.6879 43.6472 47.6899V47.6944C43.6138 47.9599 42.9303 55.3326 41.5684 58.87C39.7368 63.6251 37.1649 65.1026 37.2301 70.5895C37.314 77.6468 50.3083 78.5864 58.1448 78.0584C65.9814 77.5303 70.3575 74.9574 70.4148 69.8714C70.4772 64.1724 68.2823 64.7016 66.9057 57.7967Z" fill="#0A0A0A"/>
<path d="M35.389 86.5697L35.1356 86.5784L36.0723 113.907L36.3256 113.898L35.389 86.5697Z" fill="#0C0C0C"/>
<path d="M263.228 231.978H24.8209C24.7738 231.978 24.7287 231.96 24.6954 231.926C24.6621 231.893 24.6434 231.848 24.6434 231.801C24.6434 231.754 24.6621 231.709 24.6954 231.676C24.7287 231.643 24.7738 231.624 24.8209 231.624H263.228C263.275 231.624 263.32 231.643 263.354 231.676C263.387 231.709 263.406 231.754 263.406 231.801C263.406 231.848 263.387 231.893 263.354 231.926C263.32 231.96 263.275 231.978 263.228 231.978Z" fill="#292A2E"/>
<path d="M238.62 198.805C238.553 198.805 238.488 198.779 238.441 198.731C238.083 198.375 237.501 191.831 235.933 172.35C235.292 164.379 234.685 156.85 234.243 152.274C234.211 151.947 234.085 151.909 234.043 151.896C233.437 151.714 231.596 153.164 230.568 154.433C230.547 154.459 230.521 154.481 230.492 154.496C230.463 154.512 230.43 154.522 230.397 154.526C230.364 154.529 230.331 154.526 230.299 154.517C230.267 154.507 230.237 154.492 230.211 154.471C230.185 154.45 230.164 154.424 230.148 154.395C230.132 154.366 230.122 154.334 230.119 154.301C230.115 154.268 230.118 154.234 230.128 154.202C230.137 154.17 230.153 154.141 230.174 154.115C230.854 153.275 233.069 151.075 234.188 151.411C234.414 151.479 234.695 151.675 234.748 152.225C235.19 156.805 235.796 164.336 236.438 172.309C237.392 184.148 238.471 197.56 238.826 198.404C238.853 198.442 238.869 198.487 238.873 198.533C238.876 198.58 238.867 198.626 238.846 198.668C238.824 198.709 238.792 198.744 238.752 198.768C238.712 198.793 238.667 198.805 238.62 198.805Z" fill="#494949"/>
<path d="M233.592 160.67C237.798 157.303 239.193 152.063 236.706 148.965C234.219 145.868 228.793 146.086 224.586 149.453C220.379 152.82 218.985 158.06 221.472 161.158C223.959 164.255 229.385 164.037 233.592 160.67Z" fill="#0CBC8B"/>
<path opacity="0.2" d="M233.592 160.67C237.798 157.303 239.193 152.063 236.706 148.965C234.219 145.868 228.793 146.086 224.586 149.453C220.379 152.82 218.985 158.06 221.472 161.158C223.959 164.255 229.385 164.037 233.592 160.67Z" fill="white"/>
<path d="M222.651 161.945C222.627 161.945 222.604 161.938 222.583 161.926C222.563 161.913 222.547 161.894 222.537 161.872C222.526 161.851 222.523 161.827 222.526 161.803C222.529 161.779 222.538 161.757 222.554 161.738L234.543 147.303C234.553 147.29 234.566 147.279 234.581 147.271C234.596 147.263 234.612 147.258 234.629 147.256C234.646 147.254 234.662 147.256 234.679 147.261C234.695 147.266 234.71 147.274 234.723 147.285C234.736 147.295 234.746 147.309 234.754 147.323C234.762 147.338 234.766 147.355 234.768 147.371C234.769 147.388 234.767 147.405 234.762 147.421C234.757 147.437 234.749 147.452 234.738 147.465L222.749 161.9C222.737 161.914 222.722 161.926 222.705 161.933C222.688 161.941 222.67 161.945 222.651 161.945Z" fill="white"/>
<path d="M241.235 195.711C241.194 195.711 241.155 195.701 241.119 195.683C241.083 195.664 241.052 195.637 241.028 195.604C241.005 195.571 240.99 195.533 240.984 195.493C240.978 195.453 240.982 195.412 240.996 195.374L245.499 182.443C245.631 182.063 245.857 181.722 246.156 181.452C246.454 181.182 246.816 180.991 247.208 180.897C247.6 180.802 248.009 180.808 248.398 180.912C248.787 181.016 249.144 181.217 249.435 181.494L251.816 183.766C251.865 183.813 251.893 183.876 251.895 183.943C251.896 184.011 251.871 184.076 251.824 184.124C251.778 184.173 251.714 184.201 251.647 184.202C251.58 184.204 251.514 184.179 251.466 184.132L249.085 181.861C248.855 181.642 248.573 181.484 248.266 181.402C247.959 181.319 247.636 181.315 247.327 181.39C247.018 181.464 246.732 181.615 246.496 181.828C246.261 182.041 246.082 182.31 245.978 182.61L241.474 195.541C241.457 195.59 241.425 195.633 241.382 195.664C241.339 195.694 241.288 195.711 241.235 195.711Z" fill="#494949"/>
<path d="M258.468 190.925C261.586 188.461 261.4 183.042 258.054 178.821C254.708 174.6 249.468 173.176 246.351 175.64C243.233 178.104 243.418 183.523 246.765 187.744C250.111 191.965 255.35 193.389 258.468 190.925Z" fill="#0CBC8B"/>
<path d="M236.574 197.981C236.517 197.981 236.462 197.961 236.417 197.926C236.372 197.891 236.341 197.842 236.328 197.786L228.77 166.236C228.719 166.021 228.609 165.824 228.452 165.668C228.296 165.511 228.1 165.4 227.884 165.348C227.669 165.296 227.444 165.304 227.233 165.371C227.022 165.438 226.833 165.563 226.688 165.73L224.359 168.418C224.315 168.469 224.252 168.5 224.185 168.505C224.118 168.51 224.052 168.488 224.001 168.444C223.95 168.4 223.919 168.337 223.914 168.271C223.909 168.204 223.931 168.137 223.975 168.087L226.305 165.399C226.511 165.161 226.779 164.985 227.079 164.889C227.378 164.793 227.699 164.782 228.005 164.857C228.311 164.931 228.59 165.089 228.812 165.311C229.034 165.534 229.19 165.814 229.264 166.12L236.821 197.67C236.83 197.707 236.83 197.746 236.822 197.783C236.814 197.82 236.797 197.855 236.773 197.886C236.75 197.916 236.719 197.94 236.685 197.957C236.65 197.973 236.612 197.982 236.574 197.982V197.981Z" fill="#494949"/>
<path d="M233.637 175.432C234.553 170.129 232.122 165.284 228.205 164.609C224.289 163.934 220.371 167.685 219.454 172.988C218.538 178.29 220.97 183.136 224.886 183.81C228.802 184.485 232.72 180.734 233.637 175.432Z" fill="#0CBC8B"/>
<path d="M238.62 198.805C238.61 198.805 238.599 198.805 238.589 198.803C238.556 198.799 238.524 198.789 238.495 198.772C238.466 198.756 238.441 198.734 238.42 198.708C238.4 198.682 238.385 198.652 238.376 198.62C238.367 198.588 238.364 198.554 238.368 198.521L243.194 159.399C243.247 158.973 243.421 158.571 243.697 158.242C243.973 157.912 244.338 157.67 244.749 157.543C245.16 157.415 245.599 157.41 246.013 157.526C246.427 157.642 246.799 157.874 247.083 158.196L252.599 164.434C252.644 164.484 252.666 164.55 252.662 164.617C252.658 164.684 252.627 164.747 252.577 164.792C252.527 164.836 252.461 164.859 252.393 164.855C252.326 164.85 252.264 164.82 252.219 164.769L246.703 158.532C246.483 158.283 246.196 158.103 245.876 158.013C245.556 157.924 245.217 157.928 244.899 158.026C244.582 158.124 244.299 158.312 244.086 158.567C243.873 158.821 243.738 159.132 243.697 159.461L238.872 198.583C238.864 198.644 238.834 198.701 238.788 198.742C238.742 198.783 238.682 198.805 238.62 198.805Z" fill="#494949"/>
<path d="M258.257 167.901C260.181 164.427 257.917 159.498 253.199 156.893C248.481 154.287 243.097 154.991 241.172 158.465C239.248 161.939 241.512 166.867 246.23 169.473C250.948 172.078 256.332 171.375 258.257 167.901Z" fill="#0CBC8B"/>
<path opacity="0.2" d="M258.468 190.925C261.586 188.461 261.4 183.042 258.054 178.821C254.708 174.6 249.468 173.176 246.351 175.64C243.233 178.104 243.418 183.523 246.765 187.744C250.111 191.965 255.35 193.389 258.468 190.925Z" fill="white"/>
<path opacity="0.5" d="M233.637 175.432C234.553 170.129 232.122 165.284 228.205 164.609C224.289 163.934 220.371 167.685 219.454 172.988C218.538 178.29 220.97 183.136 224.886 183.81C228.802 184.485 232.72 180.734 233.637 175.432Z" fill="white"/>
<path opacity="0.5" d="M258.257 167.901C260.181 164.427 257.917 159.498 253.199 156.893C248.481 154.287 243.097 154.991 241.172 158.465C239.248 161.939 241.512 166.867 246.23 169.473C250.948 172.078 256.332 171.375 258.257 167.901Z" fill="white"/>
<path d="M244.793 232H232.447L230.402 192.563H246.838L244.793 232Z" fill="#292A2E"/>
<path opacity="0.3" d="M244.793 232H232.447L230.402 192.563H246.838L244.793 232Z" fill="white"/>
<path d="M258.468 191.05C258.449 191.05 258.43 191.046 258.413 191.037C258.396 191.029 258.381 191.017 258.369 191.002L246.251 175.717C246.23 175.691 246.22 175.657 246.224 175.624C246.228 175.59 246.245 175.56 246.272 175.539C246.298 175.518 246.332 175.509 246.365 175.512C246.399 175.516 246.429 175.533 246.45 175.56L258.568 190.845C258.583 190.863 258.592 190.886 258.594 190.909C258.597 190.933 258.593 190.957 258.583 190.978C258.572 191 258.556 191.018 258.536 191.031C258.516 191.043 258.492 191.05 258.469 191.05H258.468Z" fill="white"/>
<path d="M257.45 169.125C257.424 169.125 257.397 169.116 257.376 169.1L241.87 157.796C241.856 157.786 241.845 157.774 241.836 157.76C241.827 157.745 241.822 157.73 241.819 157.713C241.817 157.697 241.817 157.68 241.821 157.664C241.825 157.648 241.832 157.632 241.842 157.619C241.852 157.606 241.864 157.594 241.878 157.586C241.893 157.577 241.908 157.571 241.925 157.569C241.941 157.566 241.958 157.567 241.974 157.571C241.991 157.575 242.006 157.582 242.019 157.591L257.527 168.897C257.548 168.912 257.564 168.935 257.571 168.96C257.579 168.985 257.579 169.013 257.571 169.038C257.562 169.063 257.546 169.085 257.525 169.1C257.503 169.116 257.477 169.124 257.45 169.124V169.125Z" fill="white"/>
<path d="M224.399 183.641C224.388 183.641 224.377 183.64 224.366 183.637C224.334 183.628 224.306 183.607 224.289 183.578C224.273 183.549 224.268 183.515 224.277 183.482L229.213 165.016C229.217 165 229.224 164.985 229.235 164.971C229.245 164.958 229.257 164.946 229.272 164.938C229.286 164.929 229.302 164.924 229.319 164.921C229.336 164.919 229.353 164.92 229.369 164.925C229.385 164.929 229.4 164.936 229.414 164.947C229.427 164.957 229.438 164.97 229.446 164.984C229.455 164.999 229.46 165.015 229.462 165.032C229.464 165.048 229.463 165.065 229.458 165.082L224.522 183.547C224.514 183.574 224.499 183.598 224.476 183.615C224.454 183.632 224.427 183.641 224.399 183.641Z" fill="white"/>
</g>
<path d="M2.98289 252.365H3.49389C3.67122 252.365 3.81356 252.344 3.92089 252.302C4.02822 252.255 4.12622 252.178 4.21489 252.071L7.55389 248.291C7.64722 248.17 7.74522 248.086 7.84789 248.039C7.95056 247.992 8.07656 247.969 8.22589 247.969H9.37389L5.55189 252.288C5.45856 252.4 5.36756 252.493 5.27889 252.568C5.19489 252.638 5.10389 252.696 5.00589 252.743C5.13189 252.785 5.24622 252.848 5.34889 252.932C5.45156 253.011 5.55189 253.116 5.64989 253.247L9.63989 258H8.46389C8.37523 258 8.29823 257.995 8.23289 257.986C8.17222 257.972 8.11856 257.953 8.07189 257.93C8.02522 257.902 7.98322 257.872 7.94589 257.839C7.91322 257.802 7.88056 257.76 7.84789 257.713L4.38989 253.73C4.29656 253.613 4.19622 253.532 4.08889 253.485C3.98156 253.434 3.81822 253.408 3.59889 253.408H2.98289V258H1.63189V247.969H2.98289V252.365ZM11.4524 251.854C11.7558 251.532 12.0918 251.275 12.4604 251.084C12.8291 250.893 13.2538 250.797 13.7344 250.797C14.1218 250.797 14.4624 250.862 14.7564 250.993C15.0551 251.119 15.3024 251.301 15.4984 251.539C15.6991 251.772 15.8508 252.055 15.9534 252.386C16.0561 252.717 16.1074 253.084 16.1074 253.485V258H14.8544V253.485C14.8544 252.948 14.7308 252.533 14.4834 252.239C14.2408 251.94 13.8698 251.791 13.3704 251.791C13.0018 251.791 12.6564 251.88 12.3344 252.057C12.0171 252.234 11.7231 252.475 11.4524 252.778V258H10.1994V247.689H11.4524V251.854ZM20.5871 250.797C21.1051 250.797 21.5717 250.883 21.9871 251.056C22.4024 251.229 22.7571 251.474 23.0511 251.791C23.3451 252.108 23.5691 252.493 23.7231 252.946C23.8817 253.394 23.9611 253.896 23.9611 254.451C23.9611 255.011 23.8817 255.515 23.7231 255.963C23.5691 256.411 23.3451 256.794 23.0511 257.111C22.7571 257.428 22.4024 257.673 21.9871 257.846C21.5717 258.014 21.1051 258.098 20.5871 258.098C20.0644 258.098 19.5931 258.014 19.1731 257.846C18.7577 257.673 18.4031 257.428 18.1091 257.111C17.8151 256.794 17.5887 256.411 17.4301 255.963C17.2761 255.515 17.1991 255.011 17.1991 254.451C17.1991 253.896 17.2761 253.394 17.4301 252.946C17.5887 252.493 17.8151 252.108 18.1091 251.791C18.4031 251.474 18.7577 251.229 19.1731 251.056C19.5931 250.883 20.0644 250.797 20.5871 250.797ZM20.5871 257.125C21.2871 257.125 21.8097 256.892 22.1551 256.425C22.5004 255.954 22.6731 255.298 22.6731 254.458C22.6731 253.613 22.5004 252.955 22.1551 252.484C21.8097 252.013 21.2871 251.777 20.5871 251.777C20.2324 251.777 19.9221 251.838 19.6561 251.959C19.3947 252.08 19.1754 252.255 18.9981 252.484C18.8254 252.713 18.6947 252.995 18.6061 253.331C18.5221 253.662 18.4801 254.038 18.4801 254.458C18.4801 255.298 18.6527 255.954 18.9981 256.425C19.3481 256.892 19.8777 257.125 20.5871 257.125ZM22.7361 249.817H21.9031C21.8517 249.817 21.7981 249.808 21.7421 249.789C21.6907 249.77 21.6394 249.735 21.5881 249.684L20.7271 248.76C20.6851 248.723 20.6477 248.678 20.6151 248.627C20.5917 248.65 20.5707 248.674 20.5521 248.697C20.5334 248.72 20.5147 248.741 20.4961 248.76L19.6281 249.684C19.5301 249.773 19.4251 249.817 19.3131 249.817H18.4521L20.0131 247.969H21.1751L22.7361 249.817ZM26.3094 251.938C26.4634 251.765 26.6268 251.609 26.7994 251.469C26.9721 251.329 27.1541 251.21 27.3454 251.112C27.5414 251.009 27.7468 250.932 27.9614 250.881C28.1808 250.825 28.4164 250.797 28.6684 250.797C29.0558 250.797 29.3964 250.862 29.6904 250.993C29.9891 251.119 30.2364 251.301 30.4324 251.539C30.6331 251.772 30.7848 252.055 30.8874 252.386C30.9901 252.717 31.0414 253.084 31.0414 253.485V258H29.7884V253.485C29.7884 252.948 29.6648 252.533 29.4174 252.239C29.1748 251.94 28.8038 251.791 28.3044 251.791C27.9358 251.791 27.5904 251.88 27.2684 252.057C26.9511 252.234 26.6571 252.475 26.3864 252.778V258H25.1334V250.909H25.8824C26.0598 250.909 26.1694 250.995 26.2114 251.168L26.3094 251.938ZM35.0031 254.535C35.2551 254.535 35.4767 254.5 35.6681 254.43C35.8594 254.36 36.0204 254.262 36.1511 254.136C36.2817 254.01 36.3797 253.861 36.4451 253.688C36.5104 253.511 36.5431 253.317 36.5431 253.107C36.5431 252.673 36.4101 252.328 36.1441 252.071C35.8827 251.814 35.5024 251.686 35.0031 251.686C34.4991 251.686 34.1141 251.814 33.8481 252.071C33.5867 252.328 33.4561 252.673 33.4561 253.107C33.4561 253.317 33.4887 253.511 33.5541 253.688C33.6241 253.861 33.7244 254.01 33.8551 254.136C33.9857 254.262 34.1467 254.36 34.3381 254.43C34.5294 254.5 34.7511 254.535 35.0031 254.535ZM37.2501 258.385C37.2501 258.212 37.2011 258.072 37.1031 257.965C37.0051 257.858 36.8721 257.774 36.7041 257.713C36.5407 257.652 36.3494 257.61 36.1301 257.587C35.9107 257.559 35.6774 257.538 35.4301 257.524C35.1874 257.51 34.9401 257.496 34.6881 257.482C34.4361 257.468 34.1934 257.445 33.9601 257.412C33.6987 257.533 33.4841 257.687 33.3161 257.874C33.1527 258.056 33.0711 258.271 33.0711 258.518C33.0711 258.677 33.1107 258.824 33.1901 258.959C33.2741 259.099 33.4001 259.218 33.5681 259.316C33.7361 259.419 33.9461 259.498 34.1981 259.554C34.4547 259.615 34.7557 259.645 35.1011 259.645C35.4371 259.645 35.7381 259.615 36.0041 259.554C36.2701 259.493 36.4941 259.407 36.6761 259.295C36.8627 259.183 37.0051 259.05 37.1031 258.896C37.2011 258.742 37.2501 258.572 37.2501 258.385ZM38.5171 251.189V251.651C38.5171 251.805 38.4191 251.903 38.2231 251.945L37.4181 252.05C37.5767 252.358 37.6561 252.699 37.6561 253.072C37.6561 253.417 37.5884 253.732 37.4531 254.017C37.3224 254.297 37.1404 254.537 36.9071 254.738C36.6737 254.939 36.3937 255.093 36.0671 255.2C35.7404 255.307 35.3857 255.361 35.0031 255.361C34.6717 255.361 34.3591 255.321 34.0651 255.242C33.9157 255.335 33.8014 255.436 33.7221 255.543C33.6427 255.646 33.6031 255.751 33.6031 255.858C33.6031 256.026 33.6707 256.154 33.8061 256.243C33.9461 256.327 34.1281 256.388 34.3521 256.425C34.5761 256.462 34.8304 256.486 35.1151 256.495C35.4044 256.504 35.6984 256.521 35.9971 256.544C36.3004 256.563 36.5944 256.598 36.8791 256.649C37.1684 256.7 37.4251 256.784 37.6491 256.901C37.8731 257.018 38.0527 257.179 38.1881 257.384C38.3281 257.589 38.3981 257.855 38.3981 258.182C38.3981 258.485 38.3211 258.779 38.1671 259.064C38.0177 259.349 37.8007 259.601 37.5161 259.82C37.2314 260.044 36.8814 260.221 36.4661 260.352C36.0554 260.487 35.5911 260.555 35.0731 260.555C34.5551 260.555 34.1024 260.504 33.7151 260.401C33.3277 260.298 33.0057 260.161 32.7491 259.988C32.4924 259.815 32.2987 259.615 32.1681 259.386C32.0421 259.162 31.9791 258.926 31.9791 258.679C31.9791 258.329 32.0887 258.033 32.3081 257.79C32.5274 257.547 32.8284 257.354 33.2111 257.209C33.0011 257.116 32.8331 256.992 32.7071 256.838C32.5857 256.679 32.5251 256.467 32.5251 256.201C32.5251 256.098 32.5437 255.993 32.5811 255.886C32.6184 255.774 32.6744 255.664 32.7491 255.557C32.8284 255.445 32.9241 255.34 33.0361 255.242C33.1481 255.144 33.2787 255.058 33.4281 254.983C33.0781 254.787 32.8051 254.528 32.6091 254.206C32.4131 253.879 32.3151 253.501 32.3151 253.072C32.3151 252.727 32.3804 252.414 32.5111 252.134C32.6464 251.849 32.8331 251.609 33.0711 251.413C33.3091 251.212 33.5914 251.058 33.9181 250.951C34.2494 250.844 34.6111 250.79 35.0031 250.79C35.3111 250.79 35.5981 250.825 35.8641 250.895C36.1301 250.96 36.3727 251.058 36.5921 251.189H38.5171ZM47.5065 252.169C47.4692 252.22 47.4319 252.26 47.3945 252.288C47.3572 252.316 47.3059 252.33 47.2405 252.33C47.1705 252.33 47.0935 252.302 47.0095 252.246C46.9255 252.185 46.8205 252.12 46.6945 252.05C46.5732 251.98 46.4215 251.917 46.2395 251.861C46.0622 251.8 45.8429 251.77 45.5815 251.77C45.2315 251.77 44.9235 251.833 44.6575 251.959C44.3915 252.08 44.1675 252.258 43.9855 252.491C43.8082 252.724 43.6729 253.007 43.5795 253.338C43.4909 253.669 43.4465 254.04 43.4465 254.451C43.4465 254.88 43.4955 255.263 43.5935 255.599C43.6915 255.93 43.8292 256.21 44.0065 256.439C44.1885 256.663 44.4055 256.836 44.6575 256.957C44.9142 257.074 45.2012 257.132 45.5185 257.132C45.8219 257.132 46.0715 257.097 46.2675 257.027C46.4635 256.952 46.6245 256.871 46.7505 256.782C46.8812 256.693 46.9885 256.614 47.0725 256.544C47.1612 256.469 47.2475 256.432 47.3315 256.432C47.4342 256.432 47.5135 256.472 47.5695 256.551L47.9195 257.006C47.7655 257.197 47.5905 257.361 47.3945 257.496C47.1985 257.631 46.9862 257.746 46.7575 257.839C46.5335 257.928 46.2979 257.993 46.0505 258.035C45.8032 258.077 45.5512 258.098 45.2945 258.098C44.8512 258.098 44.4382 258.016 44.0555 257.853C43.6775 257.69 43.3485 257.454 43.0685 257.146C42.7885 256.833 42.5692 256.451 42.4105 255.998C42.2519 255.545 42.1725 255.03 42.1725 254.451C42.1725 253.924 42.2449 253.436 42.3895 252.988C42.5389 252.54 42.7535 252.155 43.0335 251.833C43.3182 251.506 43.6659 251.252 44.0765 251.07C44.4919 250.888 44.9679 250.797 45.5045 250.797C46.0039 250.797 46.4425 250.879 46.8205 251.042C47.2032 251.201 47.5415 251.427 47.8355 251.721L47.5065 252.169ZM51.715 250.797C52.233 250.797 52.6997 250.883 53.115 251.056C53.5304 251.229 53.885 251.474 54.179 251.791C54.473 252.108 54.697 252.493 54.851 252.946C55.0097 253.394 55.089 253.896 55.089 254.451C55.089 255.011 55.0097 255.515 54.851 255.963C54.697 256.411 54.473 256.794 54.179 257.111C53.885 257.428 53.5304 257.673 53.115 257.846C52.6997 258.014 52.233 258.098 51.715 258.098C51.1924 258.098 50.721 258.014 50.301 257.846C49.8857 257.673 49.531 257.428 49.237 257.111C48.943 256.794 48.7167 256.411 48.558 255.963C48.404 255.515 48.327 255.011 48.327 254.451C48.327 253.896 48.404 253.394 48.558 252.946C48.7167 252.493 48.943 252.108 49.237 251.791C49.531 251.474 49.8857 251.229 50.301 251.056C50.721 250.883 51.1924 250.797 51.715 250.797ZM51.715 257.125C52.415 257.125 52.9377 256.892 53.283 256.425C53.6284 255.954 53.801 255.298 53.801 254.458C53.801 253.613 53.6284 252.955 53.283 252.484C52.9377 252.013 52.415 251.777 51.715 251.777C51.3604 251.777 51.05 251.838 50.784 251.959C50.5227 252.08 50.3034 252.255 50.126 252.484C49.9534 252.713 49.8227 252.995 49.734 253.331C49.65 253.662 49.608 254.038 49.608 254.458C49.608 255.298 49.7807 255.954 50.126 256.425C50.476 256.892 51.0057 257.125 51.715 257.125ZM53.759 247.857L52.128 249.663C52.0627 249.733 51.9974 249.784 51.932 249.817C51.8714 249.845 51.792 249.859 51.694 249.859H50.952L51.988 248.165C52.0534 248.058 52.1234 247.981 52.198 247.934C52.2774 247.883 52.3917 247.857 52.541 247.857H53.759ZM60.6114 251.938C60.7654 251.765 60.9288 251.609 61.1014 251.469C61.2741 251.329 61.4561 251.21 61.6474 251.112C61.8434 251.009 62.0488 250.932 62.2634 250.881C62.4828 250.825 62.7184 250.797 62.9704 250.797C63.3578 250.797 63.6984 250.862 63.9924 250.993C64.2911 251.119 64.5384 251.301 64.7344 251.539C64.9351 251.772 65.0868 252.055 65.1894 252.386C65.2921 252.717 65.3434 253.084 65.3434 253.485V258H64.0904V253.485C64.0904 252.948 63.9668 252.533 63.7194 252.239C63.4768 251.94 63.1058 251.791 62.6064 251.791C62.2378 251.791 61.8924 251.88 61.5704 252.057C61.2531 252.234 60.9591 252.475 60.6884 252.778V258H59.4354V250.909H60.1844C60.3618 250.909 60.4714 250.995 60.5134 251.168L60.6114 251.938ZM68.0871 251.854C68.3904 251.532 68.7264 251.275 69.0951 251.084C69.4637 250.893 69.8884 250.797 70.3691 250.797C70.7564 250.797 71.0971 250.862 71.3911 250.993C71.6897 251.119 71.9371 251.301 72.1331 251.539C72.3337 251.772 72.4854 252.055 72.5881 252.386C72.6907 252.717 72.7421 253.084 72.7421 253.485V258H71.4891V253.485C71.4891 252.948 71.3654 252.533 71.1181 252.239C70.8754 251.94 70.5044 251.791 70.0051 251.791C69.6364 251.791 69.2911 251.88 68.9691 252.057C68.6517 252.234 68.3577 252.475 68.0871 252.778V258H66.8341V247.689H68.0871V251.854ZM75.5487 250.909V258H74.3027V250.909H75.5487ZM75.8147 248.683C75.8147 248.804 75.789 248.919 75.7377 249.026C75.691 249.129 75.6257 249.222 75.5417 249.306C75.4624 249.385 75.3667 249.448 75.2547 249.495C75.1474 249.542 75.033 249.565 74.9117 249.565C74.7904 249.565 74.676 249.542 74.5687 249.495C74.466 249.448 74.375 249.385 74.2957 249.306C74.2164 249.222 74.1534 249.129 74.1067 249.026C74.06 248.919 74.0367 248.804 74.0367 248.683C74.0367 248.562 74.06 248.447 74.1067 248.34C74.1534 248.228 74.2164 248.132 74.2957 248.053C74.375 247.969 74.466 247.904 74.5687 247.857C74.676 247.81 74.7904 247.787 74.9117 247.787C75.033 247.787 75.1474 247.81 75.2547 247.857C75.3667 247.904 75.4624 247.969 75.5417 248.053C75.6257 248.132 75.691 248.228 75.7377 248.34C75.789 248.447 75.8147 248.562 75.8147 248.683ZM81.934 253.681C81.934 253.392 81.892 253.128 81.808 252.89C81.7287 252.647 81.6097 252.44 81.451 252.267C81.297 252.09 81.108 251.954 80.884 251.861C80.66 251.763 80.4057 251.714 80.121 251.714C79.5237 251.714 79.05 251.889 78.7 252.239C78.3547 252.584 78.14 253.065 78.056 253.681H81.934ZM82.942 257.006C82.788 257.193 82.6037 257.356 82.389 257.496C82.1743 257.631 81.9433 257.743 81.696 257.832C81.4533 257.921 81.2013 257.986 80.94 258.028C80.6787 258.075 80.4197 258.098 80.163 258.098C79.673 258.098 79.2203 258.016 78.805 257.853C78.3943 257.685 78.0373 257.442 77.734 257.125C77.4353 256.803 77.202 256.406 77.034 255.935C76.866 255.464 76.782 254.922 76.782 254.311C76.782 253.816 76.8567 253.354 77.006 252.925C77.16 252.496 77.3793 252.125 77.664 251.812C77.9487 251.495 78.2963 251.247 78.707 251.07C79.1177 250.888 79.5797 250.797 80.093 250.797C80.5177 250.797 80.9097 250.869 81.269 251.014C81.633 251.154 81.9457 251.359 82.207 251.63C82.473 251.896 82.6807 252.227 82.83 252.624C82.9793 253.016 83.054 253.464 83.054 253.968C83.054 254.164 83.033 254.295 82.991 254.36C82.949 254.425 82.8697 254.458 82.753 254.458H78.014C78.028 254.906 78.0887 255.296 78.196 255.627C78.308 255.958 78.462 256.236 78.658 256.46C78.854 256.679 79.0873 256.845 79.358 256.957C79.6287 257.064 79.932 257.118 80.268 257.118C80.5807 257.118 80.849 257.083 81.073 257.013C81.3017 256.938 81.4977 256.859 81.661 256.775C81.8243 256.691 81.9597 256.614 82.067 256.544C82.179 256.469 82.2747 256.432 82.354 256.432C82.4567 256.432 82.536 256.472 82.592 256.551L82.942 257.006ZM82.263 249.817H81.43C81.3787 249.817 81.325 249.808 81.269 249.789C81.2177 249.77 81.1663 249.735 81.115 249.684L80.254 248.76C80.212 248.723 80.1747 248.678 80.142 248.627C80.1187 248.65 80.0977 248.674 80.079 248.697C80.0603 248.72 80.0417 248.741 80.023 248.76L79.155 249.684C79.057 249.773 78.952 249.817 78.84 249.817H77.979L79.54 247.969H80.702L82.263 249.817ZM80.961 259.743C80.961 259.85 80.9377 259.951 80.891 260.044C80.849 260.142 80.7907 260.226 80.716 260.296C80.646 260.366 80.562 260.422 80.464 260.464C80.366 260.506 80.2633 260.527 80.156 260.527C80.0487 260.527 79.946 260.506 79.848 260.464C79.7547 260.422 79.673 260.366 79.603 260.296C79.533 260.226 79.477 260.142 79.435 260.044C79.393 259.951 79.372 259.85 79.372 259.743C79.372 259.631 79.393 259.526 79.435 259.428C79.477 259.335 79.533 259.251 79.603 259.176C79.673 259.101 79.7547 259.043 79.848 259.001C79.946 258.959 80.0487 258.938 80.156 258.938C80.2633 258.938 80.366 258.959 80.464 259.001C80.562 259.043 80.646 259.101 80.716 259.176C80.7907 259.251 80.849 259.335 80.891 259.428C80.9377 259.526 80.961 259.631 80.961 259.743ZM84.1765 258V250.909H84.9255C85.1028 250.909 85.2125 250.995 85.2545 251.168L85.3455 251.896C85.6068 251.574 85.9008 251.31 86.2275 251.105C86.5541 250.9 86.9321 250.797 87.3615 250.797C87.8375 250.797 88.2225 250.93 88.5165 251.196C88.8151 251.462 89.0298 251.821 89.1605 252.274C89.2631 252.017 89.3938 251.796 89.5525 251.609C89.7158 251.422 89.8978 251.268 90.0985 251.147C90.2991 251.026 90.5115 250.937 90.7355 250.881C90.9641 250.825 91.1951 250.797 91.4285 250.797C91.8018 250.797 92.1331 250.858 92.4225 250.979C92.7165 251.096 92.9638 251.268 93.1645 251.497C93.3698 251.726 93.5261 252.008 93.6335 252.344C93.7408 252.675 93.7945 253.056 93.7945 253.485V258H92.5415V253.485C92.5415 252.93 92.4201 252.51 92.1775 252.225C91.9348 251.936 91.5848 251.791 91.1275 251.791C90.9221 251.791 90.7261 251.828 90.5395 251.903C90.3575 251.973 90.1965 252.078 90.0565 252.218C89.9165 252.358 89.8045 252.535 89.7205 252.75C89.6411 252.96 89.6015 253.205 89.6015 253.485V258H88.3485V253.485C88.3485 252.916 88.2341 252.491 88.0055 252.211C87.7768 251.931 87.4431 251.791 87.0045 251.791C86.6965 251.791 86.4118 251.875 86.1505 252.043C85.8891 252.206 85.6488 252.43 85.4295 252.715V258H84.1765ZM104.188 250.909L101.297 258H100.177L97.2864 250.909H98.3014C98.4041 250.909 98.4881 250.935 98.5534 250.986C98.6188 251.037 98.6631 251.098 98.6864 251.168L100.485 255.732C100.541 255.905 100.59 256.073 100.632 256.236C100.674 256.399 100.714 256.563 100.751 256.726C100.789 256.563 100.828 256.399 100.87 256.236C100.912 256.073 100.964 255.905 101.024 255.732L102.844 251.168C102.872 251.093 102.919 251.033 102.984 250.986C103.05 250.935 103.127 250.909 103.215 250.909H104.188ZM110.754 250.909V258H110.012C109.835 258 109.723 257.914 109.676 257.741L109.578 256.978C109.27 257.319 108.925 257.594 108.542 257.804C108.16 258.009 107.721 258.112 107.226 258.112C106.839 258.112 106.496 258.049 106.197 257.923C105.903 257.792 105.656 257.61 105.455 257.377C105.255 257.144 105.103 256.861 105 256.53C104.902 256.199 104.853 255.832 104.853 255.431V250.909H106.099V255.431C106.099 255.968 106.221 256.383 106.463 256.677C106.711 256.971 107.086 257.118 107.59 257.118C107.959 257.118 108.302 257.032 108.619 256.859C108.941 256.682 109.238 256.439 109.508 256.131V250.909H110.754ZM108.654 259.743C108.654 259.85 108.631 259.951 108.584 260.044C108.542 260.142 108.484 260.226 108.409 260.296C108.339 260.366 108.255 260.422 108.157 260.464C108.059 260.506 107.957 260.527 107.849 260.527C107.742 260.527 107.639 260.506 107.541 260.464C107.448 260.422 107.366 260.366 107.296 260.296C107.226 260.226 107.17 260.142 107.128 260.044C107.086 259.951 107.065 259.85 107.065 259.743C107.065 259.631 107.086 259.526 107.128 259.428C107.17 259.335 107.226 259.251 107.296 259.176C107.366 259.101 107.448 259.043 107.541 259.001C107.639 258.959 107.742 258.938 107.849 258.938C107.957 258.938 108.059 258.959 108.157 259.001C108.255 259.043 108.339 259.101 108.409 259.176C108.484 259.251 108.542 259.335 108.584 259.428C108.631 259.526 108.654 259.631 108.654 259.743ZM116.672 251.938C116.826 251.765 116.989 251.609 117.162 251.469C117.335 251.329 117.517 251.21 117.708 251.112C117.904 251.009 118.109 250.932 118.324 250.881C118.543 250.825 118.779 250.797 119.031 250.797C119.418 250.797 119.759 250.862 120.053 250.993C120.352 251.119 120.599 251.301 120.795 251.539C120.996 251.772 121.147 252.055 121.25 252.386C121.353 252.717 121.404 253.084 121.404 253.485V258H120.151V253.485C120.151 252.948 120.027 252.533 119.78 252.239C119.537 251.94 119.166 251.791 118.667 251.791C118.298 251.791 117.953 251.88 117.631 252.057C117.314 252.234 117.02 252.475 116.749 252.778V258H115.496V250.909H116.245C116.422 250.909 116.532 250.995 116.574 251.168L116.672 251.938ZM126.737 254.808C126.163 254.827 125.673 254.873 125.267 254.948C124.866 255.018 124.537 255.111 124.28 255.228C124.028 255.345 123.844 255.482 123.727 255.641C123.615 255.8 123.559 255.977 123.559 256.173C123.559 256.36 123.59 256.521 123.65 256.656C123.711 256.791 123.793 256.903 123.895 256.992C124.003 257.076 124.126 257.139 124.266 257.181C124.411 257.218 124.565 257.237 124.728 257.237C124.948 257.237 125.148 257.216 125.33 257.174C125.512 257.127 125.683 257.062 125.841 256.978C126.005 256.894 126.159 256.794 126.303 256.677C126.453 256.56 126.597 256.427 126.737 256.278V254.808ZM122.712 251.91C123.104 251.532 123.527 251.25 123.979 251.063C124.432 250.876 124.934 250.783 125.484 250.783C125.881 250.783 126.233 250.848 126.541 250.979C126.849 251.11 127.108 251.292 127.318 251.525C127.528 251.758 127.687 252.041 127.794 252.372C127.902 252.703 127.955 253.067 127.955 253.464V258H127.402C127.281 258 127.188 257.981 127.122 257.944C127.057 257.902 127.006 257.823 126.968 257.706L126.828 257.034C126.642 257.207 126.46 257.361 126.282 257.496C126.105 257.627 125.918 257.739 125.722 257.832C125.526 257.921 125.316 257.988 125.092 258.035C124.873 258.086 124.628 258.112 124.357 258.112C124.082 258.112 123.823 258.075 123.58 258C123.338 257.921 123.125 257.804 122.943 257.65C122.766 257.496 122.624 257.302 122.516 257.069C122.414 256.831 122.362 256.551 122.362 256.229C122.362 255.949 122.439 255.681 122.593 255.424C122.747 255.163 122.997 254.932 123.342 254.731C123.688 254.53 124.138 254.367 124.693 254.241C125.249 254.11 125.93 254.036 126.737 254.017V253.464C126.737 252.913 126.618 252.498 126.38 252.218C126.142 251.933 125.795 251.791 125.337 251.791C125.029 251.791 124.77 251.831 124.56 251.91C124.355 251.985 124.175 252.071 124.021 252.169C123.872 252.262 123.741 252.349 123.629 252.428C123.522 252.503 123.415 252.54 123.307 252.54C123.223 252.54 123.151 252.519 123.09 252.477C123.03 252.43 122.978 252.374 122.936 252.309L122.712 251.91ZM124.63 247.857C124.784 247.857 124.899 247.883 124.973 247.934C125.048 247.981 125.118 248.058 125.183 248.165L126.226 249.859H125.512C125.414 249.859 125.335 249.845 125.274 249.817C125.214 249.784 125.151 249.733 125.085 249.663L123.447 247.857H124.63ZM132.434 250.797C132.952 250.797 133.419 250.883 133.834 251.056C134.25 251.229 134.604 251.474 134.898 251.791C135.192 252.108 135.416 252.493 135.57 252.946C135.729 253.394 135.808 253.896 135.808 254.451C135.808 255.011 135.729 255.515 135.57 255.963C135.416 256.411 135.192 256.794 134.898 257.111C134.604 257.428 134.25 257.673 133.834 257.846C133.419 258.014 132.952 258.098 132.434 258.098C131.912 258.098 131.44 258.014 131.02 257.846C130.605 257.673 130.25 257.428 129.956 257.111C129.662 256.794 129.436 256.411 129.277 255.963C129.123 255.515 129.046 255.011 129.046 254.451C129.046 253.896 129.123 253.394 129.277 252.946C129.436 252.493 129.662 252.108 129.956 251.791C130.25 251.474 130.605 251.229 131.02 251.056C131.44 250.883 131.912 250.797 132.434 250.797ZM132.434 257.125C133.134 257.125 133.657 256.892 134.002 256.425C134.348 255.954 134.52 255.298 134.52 254.458C134.52 253.613 134.348 252.955 134.002 252.484C133.657 252.013 133.134 251.777 132.434 251.777C132.08 251.777 131.769 251.838 131.503 251.959C131.242 252.08 131.023 252.255 130.845 252.484C130.673 252.713 130.542 252.995 130.453 253.331C130.369 253.662 130.327 254.038 130.327 254.458C130.327 255.298 130.5 255.954 130.845 256.425C131.195 256.892 131.725 257.125 132.434 257.125ZM136.771 257.23C136.771 257.109 136.792 256.994 136.834 256.887C136.881 256.78 136.941 256.686 137.016 256.607C137.095 256.528 137.189 256.465 137.296 256.418C137.403 256.371 137.518 256.348 137.639 256.348C137.76 256.348 137.875 256.371 137.982 256.418C138.089 256.465 138.183 256.528 138.262 256.607C138.341 256.686 138.404 256.78 138.451 256.887C138.498 256.994 138.521 257.109 138.521 257.23C138.521 257.356 138.498 257.473 138.451 257.58C138.404 257.683 138.341 257.774 138.262 257.853C138.183 257.932 138.089 257.993 137.982 258.035C137.875 258.082 137.76 258.105 137.639 258.105C137.518 258.105 137.403 258.082 137.296 258.035C137.189 257.993 137.095 257.932 137.016 257.853C136.941 257.774 136.881 257.683 136.834 257.58C136.792 257.473 136.771 257.356 136.771 257.23ZM149.709 249.11H146.461V258H145.11V249.11H141.855V247.969H149.709V249.11ZM151.625 251.854C151.928 251.532 152.264 251.275 152.633 251.084C153.002 250.893 153.426 250.797 153.907 250.797C154.294 250.797 154.635 250.862 154.929 250.993C155.228 251.119 155.475 251.301 155.671 251.539C155.872 251.772 156.023 252.055 156.126 252.386C156.229 252.717 156.28 253.084 156.28 253.485V258H155.027V253.485C155.027 252.948 154.903 252.533 154.656 252.239C154.413 251.94 154.042 251.791 153.543 251.791C153.174 251.791 152.829 251.88 152.507 252.057C152.19 252.234 151.896 252.475 151.625 252.778V258H150.372V247.689H151.625V251.854ZM162.517 253.681C162.517 253.392 162.475 253.128 162.391 252.89C162.311 252.647 162.192 252.44 162.034 252.267C161.88 252.09 161.691 251.954 161.467 251.861C161.243 251.763 160.988 251.714 160.704 251.714C160.106 251.714 159.633 251.889 159.283 252.239C158.937 252.584 158.723 253.065 158.639 253.681H162.517ZM163.525 257.006C163.371 257.193 163.186 257.356 162.972 257.496C162.757 257.631 162.526 257.743 162.279 257.832C162.036 257.921 161.784 257.986 161.523 258.028C161.261 258.075 161.002 258.098 160.746 258.098C160.256 258.098 159.803 258.016 159.388 257.853C158.977 257.685 158.62 257.442 158.317 257.125C158.018 256.803 157.785 256.406 157.617 255.935C157.449 255.464 157.365 254.922 157.365 254.311C157.365 253.816 157.439 253.354 157.589 252.925C157.743 252.496 157.962 252.125 158.247 251.812C158.531 251.495 158.879 251.247 159.29 251.07C159.7 250.888 160.162 250.797 160.676 250.797C161.1 250.797 161.492 250.869 161.852 251.014C162.216 251.154 162.528 251.359 162.79 251.63C163.056 251.896 163.263 252.227 163.413 252.624C163.562 253.016 163.637 253.464 163.637 253.968C163.637 254.164 163.616 254.295 163.574 254.36C163.532 254.425 163.452 254.458 163.336 254.458H158.597C158.611 254.906 158.671 255.296 158.779 255.627C158.891 255.958 159.045 256.236 159.241 256.46C159.437 256.679 159.67 256.845 159.941 256.957C160.211 257.064 160.515 257.118 160.851 257.118C161.163 257.118 161.432 257.083 161.656 257.013C161.884 256.938 162.08 256.859 162.244 256.775C162.407 256.691 162.542 256.614 162.65 256.544C162.762 256.469 162.857 256.432 162.937 256.432C163.039 256.432 163.119 256.472 163.175 256.551L163.525 257.006ZM162.846 249.817H162.013C161.961 249.817 161.908 249.808 161.852 249.789C161.8 249.77 161.749 249.735 161.698 249.684L160.837 248.76C160.795 248.723 160.757 248.678 160.725 248.627C160.701 248.65 160.68 248.674 160.662 248.697C160.643 248.72 160.624 248.741 160.606 248.76L159.738 249.684C159.64 249.773 159.535 249.817 159.423 249.817H158.562L160.123 247.969H161.285L162.846 249.817ZM164.759 258V250.909H165.508C165.686 250.909 165.795 250.995 165.837 251.168L165.928 251.896C166.19 251.574 166.484 251.31 166.81 251.105C167.137 250.9 167.515 250.797 167.944 250.797C168.42 250.797 168.805 250.93 169.099 251.196C169.398 251.462 169.613 251.821 169.743 252.274C169.846 252.017 169.977 251.796 170.135 251.609C170.299 251.422 170.481 251.268 170.681 251.147C170.882 251.026 171.094 250.937 171.318 250.881C171.547 250.825 171.778 250.797 172.011 250.797C172.385 250.797 172.716 250.858 173.005 250.979C173.299 251.096 173.547 251.268 173.747 251.497C173.953 251.726 174.109 252.008 174.216 252.344C174.324 252.675 174.377 253.056 174.377 253.485V258H173.124V253.485C173.124 252.93 173.003 252.51 172.76 252.225C172.518 251.936 172.168 251.791 171.71 251.791C171.505 251.791 171.309 251.828 171.122 251.903C170.94 251.973 170.779 252.078 170.639 252.218C170.499 252.358 170.387 252.535 170.303 252.75C170.224 252.96 170.184 253.205 170.184 253.485V258H168.931V253.485C168.931 252.916 168.817 252.491 168.588 252.211C168.36 251.931 168.026 251.791 167.587 251.791C167.279 251.791 166.995 251.875 166.733 252.043C166.472 252.206 166.232 252.43 166.012 252.715V258H164.759ZM180.213 251.938C180.367 251.765 180.53 251.609 180.703 251.469C180.876 251.329 181.058 251.21 181.249 251.112C181.445 251.009 181.65 250.932 181.865 250.881C182.084 250.825 182.32 250.797 182.572 250.797C182.959 250.797 183.3 250.862 183.594 250.993C183.893 251.119 184.14 251.301 184.336 251.539C184.537 251.772 184.688 252.055 184.791 252.386C184.894 252.717 184.945 253.084 184.945 253.485V258H183.692V253.485C183.692 252.948 183.568 252.533 183.321 252.239C183.078 251.94 182.707 251.791 182.208 251.791C181.839 251.791 181.494 251.88 181.172 252.057C180.855 252.234 180.561 252.475 180.29 252.778V258H179.037V250.909H179.786C179.963 250.909 180.073 250.995 180.115 251.168L180.213 251.938ZM187.689 251.854C187.992 251.532 188.328 251.275 188.697 251.084C189.065 250.893 189.49 250.797 189.971 250.797C190.358 250.797 190.699 250.862 190.993 250.993C191.291 251.119 191.539 251.301 191.735 251.539C191.935 251.772 192.087 252.055 192.19 252.386C192.292 252.717 192.344 253.084 192.344 253.485V258H191.091V253.485C191.091 252.948 190.967 252.533 190.72 252.239C190.477 251.94 190.106 251.791 189.607 251.791C189.238 251.791 188.893 251.88 188.571 252.057C188.253 252.234 187.959 252.475 187.689 252.778V258H186.436V247.689H187.689V251.854ZM195.15 250.909V258H193.904V250.909H195.15ZM195.416 248.683C195.416 248.804 195.391 248.919 195.339 249.026C195.293 249.129 195.227 249.222 195.143 249.306C195.064 249.385 194.968 249.448 194.856 249.495C194.749 249.542 194.635 249.565 194.513 249.565C194.392 249.565 194.278 249.542 194.17 249.495C194.068 249.448 193.977 249.385 193.897 249.306C193.818 249.222 193.755 249.129 193.708 249.026C193.662 248.919 193.638 248.804 193.638 248.683C193.638 248.562 193.662 248.447 193.708 248.34C193.755 248.228 193.818 248.132 193.897 248.053C193.977 247.969 194.068 247.904 194.17 247.857C194.278 247.81 194.392 247.787 194.513 247.787C194.635 247.787 194.749 247.81 194.856 247.857C194.968 247.904 195.064 247.969 195.143 248.053C195.227 248.132 195.293 248.228 195.339 248.34C195.391 248.447 195.416 248.562 195.416 248.683ZM201.536 253.681C201.536 253.392 201.494 253.128 201.41 252.89C201.33 252.647 201.211 252.44 201.053 252.267C200.899 252.09 200.71 251.954 200.486 251.861C200.262 251.763 200.007 251.714 199.723 251.714C199.125 251.714 198.652 251.889 198.302 252.239C197.956 252.584 197.742 253.065 197.658 253.681H201.536ZM202.544 257.006C202.39 257.193 202.205 257.356 201.991 257.496C201.776 257.631 201.545 257.743 201.298 257.832C201.055 257.921 200.803 257.986 200.542 258.028C200.28 258.075 200.021 258.098 199.765 258.098C199.275 258.098 198.822 258.016 198.407 257.853C197.996 257.685 197.639 257.442 197.336 257.125C197.037 256.803 196.804 256.406 196.636 255.935C196.468 255.464 196.384 254.922 196.384 254.311C196.384 253.816 196.458 253.354 196.608 252.925C196.762 252.496 196.981 252.125 197.266 251.812C197.55 251.495 197.898 251.247 198.309 251.07C198.719 250.888 199.181 250.797 199.695 250.797C200.119 250.797 200.511 250.869 200.871 251.014C201.235 251.154 201.547 251.359 201.809 251.63C202.075 251.896 202.282 252.227 202.432 252.624C202.581 253.016 202.656 253.464 202.656 253.968C202.656 254.164 202.635 254.295 202.593 254.36C202.551 254.425 202.471 254.458 202.355 254.458H197.616C197.63 254.906 197.69 255.296 197.798 255.627C197.91 255.958 198.064 256.236 198.26 256.46C198.456 256.679 198.689 256.845 198.96 256.957C199.23 257.064 199.534 257.118 199.87 257.118C200.182 257.118 200.451 257.083 200.675 257.013C200.903 256.938 201.099 256.859 201.263 256.775C201.426 256.691 201.561 256.614 201.669 256.544C201.781 256.469 201.876 256.432 201.956 256.432C202.058 256.432 202.138 256.472 202.194 256.551L202.544 257.006ZM201.865 249.817H201.032C200.98 249.817 200.927 249.808 200.871 249.789C200.819 249.77 200.768 249.735 200.717 249.684L199.856 248.76C199.814 248.723 199.776 248.678 199.744 248.627C199.72 248.65 199.699 248.674 199.681 248.697C199.662 248.72 199.643 248.741 199.625 248.76L198.757 249.684C198.659 249.773 198.554 249.817 198.442 249.817H197.581L199.142 247.969H200.304L201.865 249.817ZM200.563 259.743C200.563 259.85 200.539 259.951 200.493 260.044C200.451 260.142 200.392 260.226 200.318 260.296C200.248 260.366 200.164 260.422 200.066 260.464C199.968 260.506 199.865 260.527 199.758 260.527C199.65 260.527 199.548 260.506 199.45 260.464C199.356 260.422 199.275 260.366 199.205 260.296C199.135 260.226 199.079 260.142 199.037 260.044C198.995 259.951 198.974 259.85 198.974 259.743C198.974 259.631 198.995 259.526 199.037 259.428C199.079 259.335 199.135 259.251 199.205 259.176C199.275 259.101 199.356 259.043 199.45 259.001C199.548 258.959 199.65 258.938 199.758 258.938C199.865 258.938 199.968 258.959 200.066 259.001C200.164 259.043 200.248 259.101 200.318 259.176C200.392 259.251 200.451 259.335 200.493 259.428C200.539 259.526 200.563 259.631 200.563 259.743ZM203.778 258V250.909H204.527C204.704 250.909 204.814 250.995 204.856 251.168L204.947 251.896C205.208 251.574 205.502 251.31 205.829 251.105C206.156 250.9 206.534 250.797 206.963 250.797C207.439 250.797 207.824 250.93 208.118 251.196C208.417 251.462 208.631 251.821 208.762 252.274C208.865 252.017 208.995 251.796 209.154 251.609C209.317 251.422 209.499 251.268 209.7 251.147C209.901 251.026 210.113 250.937 210.337 250.881C210.566 250.825 210.797 250.797 211.03 250.797C211.403 250.797 211.735 250.858 212.024 250.979C212.318 251.096 212.565 251.268 212.766 251.497C212.971 251.726 213.128 252.008 213.235 252.344C213.342 252.675 213.396 253.056 213.396 253.485V258H212.143V253.485C212.143 252.93 212.022 252.51 211.779 252.225C211.536 251.936 211.186 251.791 210.729 251.791C210.524 251.791 210.328 251.828 210.141 251.903C209.959 251.973 209.798 252.078 209.658 252.218C209.518 252.358 209.406 252.535 209.322 252.75C209.243 252.96 209.203 253.205 209.203 253.485V258H207.95V253.485C207.95 252.916 207.836 252.491 207.607 252.211C207.378 251.931 207.045 251.791 206.606 251.791C206.298 251.791 206.013 251.875 205.752 252.043C205.491 252.206 205.25 252.43 205.031 252.715V258H203.778ZM223.79 250.909L220.899 258H219.779L216.888 250.909H217.903C218.006 250.909 218.09 250.935 218.155 250.986C218.22 251.037 218.265 251.098 218.288 251.168L220.087 255.732C220.143 255.905 220.192 256.073 220.234 256.236C220.276 256.399 220.316 256.563 220.353 256.726C220.39 256.563 220.43 256.399 220.472 256.236C220.514 256.073 220.565 255.905 220.626 255.732L222.446 251.168C222.474 251.093 222.521 251.033 222.586 250.986C222.651 250.935 222.728 250.909 222.817 250.909H223.79ZM230.356 250.909V258H229.614C229.436 258 229.324 257.914 229.278 257.741L229.18 256.978C228.872 257.319 228.526 257.594 228.144 257.804C227.761 258.009 227.322 258.112 226.828 258.112C226.44 258.112 226.097 258.049 225.799 257.923C225.505 257.792 225.257 257.61 225.057 257.377C224.856 257.144 224.704 256.861 224.602 256.53C224.504 256.199 224.455 255.832 224.455 255.431V250.909H225.701V255.431C225.701 255.968 225.822 256.383 226.065 256.677C226.312 256.971 226.688 257.118 227.192 257.118C227.56 257.118 227.903 257.032 228.221 256.859C228.543 256.682 228.839 256.439 229.11 256.131V250.909H230.356ZM228.256 259.743C228.256 259.85 228.232 259.951 228.186 260.044C228.144 260.142 228.085 260.226 228.011 260.296C227.941 260.366 227.857 260.422 227.759 260.464C227.661 260.506 227.558 260.527 227.451 260.527C227.343 260.527 227.241 260.506 227.143 260.464C227.049 260.422 226.968 260.366 226.898 260.296C226.828 260.226 226.772 260.142 226.73 260.044C226.688 259.951 226.667 259.85 226.667 259.743C226.667 259.631 226.688 259.526 226.73 259.428C226.772 259.335 226.828 259.251 226.898 259.176C226.968 259.101 227.049 259.043 227.143 259.001C227.241 258.959 227.343 258.938 227.451 258.938C227.558 258.938 227.661 258.959 227.759 259.001C227.857 259.043 227.941 259.101 228.011 259.176C228.085 259.251 228.144 259.335 228.186 259.428C228.232 259.526 228.256 259.631 228.256 259.743ZM236.273 251.938C236.427 251.765 236.591 251.609 236.763 251.469C236.936 251.329 237.118 251.21 237.309 251.112C237.505 251.009 237.711 250.932 237.925 250.881C238.145 250.825 238.38 250.797 238.632 250.797C239.02 250.797 239.36 250.862 239.654 250.993C239.953 251.119 240.2 251.301 240.396 251.539C240.597 251.772 240.749 252.055 240.851 252.386C240.954 252.717 241.005 253.084 241.005 253.485V258H239.752V253.485C239.752 252.948 239.629 252.533 239.381 252.239C239.139 251.94 238.768 251.791 238.268 251.791C237.9 251.791 237.554 251.88 237.232 252.057C236.915 252.234 236.621 252.475 236.35 252.778V258H235.097V250.909H235.846C236.024 250.909 236.133 250.995 236.175 251.168L236.273 251.938ZM244.967 254.535C245.219 254.535 245.441 254.5 245.632 254.43C245.823 254.36 245.984 254.262 246.115 254.136C246.246 254.01 246.344 253.861 246.409 253.688C246.474 253.511 246.507 253.317 246.507 253.107C246.507 252.673 246.374 252.328 246.108 252.071C245.847 251.814 245.466 251.686 244.967 251.686C244.463 251.686 244.078 251.814 243.812 252.071C243.551 252.328 243.42 252.673 243.42 253.107C243.42 253.317 243.453 253.511 243.518 253.688C243.588 253.861 243.688 254.01 243.819 254.136C243.95 254.262 244.111 254.36 244.302 254.43C244.493 254.5 244.715 254.535 244.967 254.535ZM247.214 258.385C247.214 258.212 247.165 258.072 247.067 257.965C246.969 257.858 246.836 257.774 246.668 257.713C246.505 257.652 246.313 257.61 246.094 257.587C245.875 257.559 245.641 257.538 245.394 257.524C245.151 257.51 244.904 257.496 244.652 257.482C244.4 257.468 244.157 257.445 243.924 257.412C243.663 257.533 243.448 257.687 243.28 257.874C243.117 258.056 243.035 258.271 243.035 258.518C243.035 258.677 243.075 258.824 243.154 258.959C243.238 259.099 243.364 259.218 243.532 259.316C243.7 259.419 243.91 259.498 244.162 259.554C244.419 259.615 244.72 259.645 245.065 259.645C245.401 259.645 245.702 259.615 245.968 259.554C246.234 259.493 246.458 259.407 246.64 259.295C246.827 259.183 246.969 259.05 247.067 258.896C247.165 258.742 247.214 258.572 247.214 258.385ZM248.481 251.189V251.651C248.481 251.805 248.383 251.903 248.187 251.945L247.382 252.05C247.541 252.358 247.62 252.699 247.62 253.072C247.62 253.417 247.552 253.732 247.417 254.017C247.286 254.297 247.104 254.537 246.871 254.738C246.638 254.939 246.358 255.093 246.031 255.2C245.704 255.307 245.35 255.361 244.967 255.361C244.636 255.361 244.323 255.321 244.029 255.242C243.88 255.335 243.765 255.436 243.686 255.543C243.607 255.646 243.567 255.751 243.567 255.858C243.567 256.026 243.635 256.154 243.77 256.243C243.91 256.327 244.092 256.388 244.316 256.425C244.54 256.462 244.794 256.486 245.079 256.495C245.368 256.504 245.662 256.521 245.961 256.544C246.264 256.563 246.558 256.598 246.843 256.649C247.132 256.7 247.389 256.784 247.613 256.901C247.837 257.018 248.017 257.179 248.152 257.384C248.292 257.589 248.362 257.855 248.362 258.182C248.362 258.485 248.285 258.779 248.131 259.064C247.982 259.349 247.765 259.601 247.48 259.82C247.195 260.044 246.845 260.221 246.43 260.352C246.019 260.487 245.555 260.555 245.037 260.555C244.519 260.555 244.066 260.504 243.679 260.401C243.292 260.298 242.97 260.161 242.713 259.988C242.456 259.815 242.263 259.615 242.132 259.386C242.006 259.162 241.943 258.926 241.943 258.679C241.943 258.329 242.053 258.033 242.272 257.79C242.491 257.547 242.792 257.354 243.175 257.209C242.965 257.116 242.797 256.992 242.671 256.838C242.55 256.679 242.489 256.467 242.489 256.201C242.489 256.098 242.508 255.993 242.545 255.886C242.582 255.774 242.638 255.664 242.713 255.557C242.792 255.445 242.888 255.34 243 255.242C243.112 255.144 243.243 255.058 243.392 254.983C243.042 254.787 242.769 254.528 242.573 254.206C242.377 253.879 242.279 253.501 242.279 253.072C242.279 252.727 242.344 252.414 242.475 252.134C242.61 251.849 242.797 251.609 243.035 251.413C243.273 251.212 243.555 251.058 243.882 250.951C244.213 250.844 244.575 250.79 244.967 250.79C245.275 250.79 245.562 250.825 245.828 250.895C246.094 250.96 246.337 251.058 246.556 251.189H248.481ZM253.204 254.808C252.63 254.827 252.14 254.873 251.734 254.948C251.333 255.018 251.004 255.111 250.747 255.228C250.495 255.345 250.311 255.482 250.194 255.641C250.082 255.8 250.026 255.977 250.026 256.173C250.026 256.36 250.057 256.521 250.117 256.656C250.178 256.791 250.26 256.903 250.362 256.992C250.47 257.076 250.593 257.139 250.733 257.181C250.878 257.218 251.032 257.237 251.195 257.237C251.415 257.237 251.615 257.216 251.797 257.174C251.979 257.127 252.15 257.062 252.308 256.978C252.472 256.894 252.626 256.794 252.77 256.677C252.92 256.56 253.064 256.427 253.204 256.278V254.808ZM249.179 251.91C249.571 251.532 249.994 251.25 250.446 251.063C250.899 250.876 251.401 250.783 251.951 250.783C252.348 250.783 252.7 250.848 253.008 250.979C253.316 251.11 253.575 251.292 253.785 251.525C253.995 251.758 254.154 252.041 254.261 252.372C254.369 252.703 254.422 253.067 254.422 253.464V258H253.869C253.748 258 253.655 257.981 253.589 257.944C253.524 257.902 253.473 257.823 253.435 257.706L253.295 257.034C253.109 257.207 252.927 257.361 252.749 257.496C252.572 257.627 252.385 257.739 252.189 257.832C251.993 257.921 251.783 257.988 251.559 258.035C251.34 258.086 251.095 258.112 250.824 258.112C250.549 258.112 250.29 258.075 250.047 258C249.805 257.921 249.592 257.804 249.41 257.65C249.233 257.496 249.091 257.302 248.983 257.069C248.881 256.831 248.829 256.551 248.829 256.229C248.829 255.949 248.906 255.681 249.06 255.424C249.214 255.163 249.464 254.932 249.809 254.731C250.155 254.53 250.605 254.367 251.16 254.241C251.716 254.11 252.397 254.036 253.204 254.017V253.464C253.204 252.913 253.085 252.498 252.847 252.218C252.609 251.933 252.262 251.791 251.804 251.791C251.496 251.791 251.237 251.831 251.027 251.91C250.822 251.985 250.642 252.071 250.488 252.169C250.339 252.262 250.208 252.349 250.096 252.428C249.989 252.503 249.882 252.54 249.774 252.54C249.69 252.54 249.618 252.519 249.557 252.477C249.497 252.43 249.445 252.374 249.403 252.309L249.179 251.91ZM261.866 250.909L257.911 260.093C257.869 260.186 257.816 260.261 257.75 260.317C257.69 260.373 257.594 260.401 257.463 260.401H256.539L257.834 257.587L254.908 250.909H255.986C256.094 250.909 256.178 250.937 256.238 250.993C256.304 251.044 256.348 251.103 256.371 251.168L258.268 255.634C258.343 255.83 258.406 256.035 258.457 256.25C258.523 256.031 258.593 255.823 258.667 255.627L260.508 251.168C260.536 251.093 260.583 251.033 260.648 250.986C260.718 250.935 260.795 250.909 260.879 250.909H261.866ZM266.567 251.938C266.721 251.765 266.885 251.609 267.057 251.469C267.23 251.329 267.412 251.21 267.603 251.112C267.799 251.009 268.005 250.932 268.219 250.881C268.439 250.825 268.674 250.797 268.926 250.797C269.314 250.797 269.654 250.862 269.948 250.993C270.247 251.119 270.494 251.301 270.69 251.539C270.891 251.772 271.043 252.055 271.145 252.386C271.248 252.717 271.299 253.084 271.299 253.485V258H270.046V253.485C270.046 252.948 269.923 252.533 269.675 252.239C269.433 251.94 269.062 251.791 268.562 251.791C268.194 251.791 267.848 251.88 267.526 252.057C267.209 252.234 266.915 252.475 266.644 252.778V258H265.391V250.909H266.14C266.318 250.909 266.427 250.995 266.469 251.168L266.567 251.938ZM276.633 254.808C276.059 254.827 275.569 254.873 275.163 254.948C274.762 255.018 274.433 255.111 274.176 255.228C273.924 255.345 273.74 255.482 273.623 255.641C273.511 255.8 273.455 255.977 273.455 256.173C273.455 256.36 273.485 256.521 273.546 256.656C273.607 256.791 273.688 256.903 273.791 256.992C273.898 257.076 274.022 257.139 274.162 257.181C274.307 257.218 274.461 257.237 274.624 257.237C274.843 257.237 275.044 257.216 275.226 257.174C275.408 257.127 275.578 257.062 275.737 256.978C275.9 256.894 276.054 256.794 276.199 256.677C276.348 256.56 276.493 256.427 276.633 256.278V254.808ZM272.608 251.91C273 251.532 273.422 251.25 273.875 251.063C274.328 250.876 274.829 250.783 275.38 250.783C275.777 250.783 276.129 250.848 276.437 250.979C276.745 251.11 277.004 251.292 277.214 251.525C277.424 251.758 277.583 252.041 277.69 252.372C277.797 252.703 277.851 253.067 277.851 253.464V258H277.298C277.177 258 277.083 257.981 277.018 257.944C276.953 257.902 276.901 257.823 276.864 257.706L276.724 257.034C276.537 257.207 276.355 257.361 276.178 257.496C276.001 257.627 275.814 257.739 275.618 257.832C275.422 257.921 275.212 257.988 274.988 258.035C274.769 258.086 274.524 258.112 274.253 258.112C273.978 258.112 273.719 258.075 273.476 258C273.233 257.921 273.021 257.804 272.839 257.65C272.662 257.496 272.519 257.302 272.412 257.069C272.309 256.831 272.258 256.551 272.258 256.229C272.258 255.949 272.335 255.681 272.489 255.424C272.643 255.163 272.893 254.932 273.238 254.731C273.583 254.53 274.034 254.367 274.589 254.241C275.144 254.11 275.826 254.036 276.633 254.017V253.464C276.633 252.913 276.514 252.498 276.276 252.218C276.038 251.933 275.69 251.791 275.233 251.791C274.925 251.791 274.666 251.831 274.456 251.91C274.251 251.985 274.071 252.071 273.917 252.169C273.768 252.262 273.637 252.349 273.525 252.428C273.418 252.503 273.31 252.54 273.203 252.54C273.119 252.54 273.047 252.519 272.986 252.477C272.925 252.43 272.874 252.374 272.832 252.309L272.608 251.91ZM274.526 247.857C274.68 247.857 274.794 247.883 274.869 247.934C274.944 247.981 275.014 248.058 275.079 248.165L276.122 249.859H275.408C275.31 249.859 275.231 249.845 275.17 249.817C275.109 249.784 275.046 249.733 274.981 249.663L273.343 247.857H274.526ZM282.33 250.797C282.848 250.797 283.315 250.883 283.73 251.056C284.145 251.229 284.5 251.474 284.794 251.791C285.088 252.108 285.312 252.493 285.466 252.946C285.625 253.394 285.704 253.896 285.704 254.451C285.704 255.011 285.625 255.515 285.466 255.963C285.312 256.411 285.088 256.794 284.794 257.111C284.5 257.428 284.145 257.673 283.73 257.846C283.315 258.014 282.848 258.098 282.33 258.098C281.807 258.098 281.336 258.014 280.916 257.846C280.501 257.673 280.146 257.428 279.852 257.111C279.558 256.794 279.332 256.411 279.173 255.963C279.019 255.515 278.942 255.011 278.942 254.451C278.942 253.896 279.019 253.394 279.173 252.946C279.332 252.493 279.558 252.108 279.852 251.791C280.146 251.474 280.501 251.229 280.916 251.056C281.336 250.883 281.807 250.797 282.33 250.797ZM282.33 257.125C283.03 257.125 283.553 256.892 283.898 256.425C284.243 255.954 284.416 255.298 284.416 254.458C284.416 253.613 284.243 252.955 283.898 252.484C283.553 252.013 283.03 251.777 282.33 251.777C281.975 251.777 281.665 251.838 281.399 251.959C281.138 252.08 280.918 252.255 280.741 252.484C280.568 252.713 280.438 252.995 280.349 253.331C280.265 253.662 280.223 254.038 280.223 254.458C280.223 255.298 280.396 255.954 280.741 256.425C281.091 256.892 281.621 257.125 282.33 257.125ZM288.374 247.969V251.973C288.374 252.183 288.37 252.388 288.36 252.589C288.351 252.79 288.339 252.993 288.325 253.198C288.311 253.399 288.293 253.606 288.269 253.821C288.251 254.031 288.227 254.257 288.199 254.5H287.359C287.331 254.257 287.306 254.031 287.282 253.821C287.264 253.606 287.247 253.399 287.233 253.198C287.219 252.993 287.208 252.79 287.198 252.589C287.189 252.388 287.184 252.183 287.184 251.973V247.969H288.374ZM286.883 257.23C286.883 257.109 286.904 256.994 286.946 256.887C286.993 256.78 287.056 256.686 287.135 256.607C287.215 256.528 287.306 256.465 287.408 256.418C287.516 256.371 287.632 256.348 287.758 256.348C287.88 256.348 287.992 256.371 288.094 256.418C288.202 256.465 288.295 256.528 288.374 256.607C288.454 256.686 288.517 256.78 288.563 256.887C288.61 256.994 288.633 257.109 288.633 257.23C288.633 257.356 288.61 257.473 288.563 257.58C288.517 257.683 288.454 257.774 288.374 257.853C288.295 257.932 288.202 257.993 288.094 258.035C287.992 258.082 287.88 258.105 287.758 258.105C287.632 258.105 287.516 258.082 287.408 258.035C287.306 257.993 287.215 257.932 287.135 257.853C287.056 257.774 286.993 257.683 286.946 257.58C286.904 257.473 286.883 257.356 286.883 257.23Z" fill="black"/>
<defs>
<clipPath id="clip0_1_487">
<rect width="248" height="232" fill="white" transform="translate(21)"/>
</clipPath>
</defs>
</svg>
